<?xml version="1.0" encoding="utf-8"?>
<svg version="1.0" xmlns="http://www.w3.org/2000/svg" width="400px" height="688px" viewBox="0 0 300 516" preserveAspectRatio="none">
  <path fill="rgb(255,0,0)" stroke="rgb(255,0,0)" stroke-width="0" opacity="0.9333333333333333" d="M 97.69 114.174 C 97.704 114.388 97.414 119.119 97.621 119.914 C 98.173 122.059 99.653 124.8 101.061 127.121 C 101.067 127.123 101.072 127.124 101.077 127.125 C 103.98 128.01 108.783 132.699 113.773 134.818 C 122.53 134.86 132.922 135.077 142.494 135.199 C 145.183 134.684 147.728 134.069 151.241 133.827 C 155.711 133.519 163.114 133.222 169.151 133.261 C 173.123 131.785 176.946 130.138 178.416 128.352 C 180.817 125.436 178.706 122.033 179.748 118.299 C 179.966 117.518 180.237 116.625 180.546 115.668 C 179.351 113.073 179.17 107.53 177.655 103.518 C 175.938 98.971 170.967 92.431 170.553 89.696 C 170.516 89.459 170.501 89.242 170.505 89.043 C 164.646 88.47 157.265 87.544 151.925 86.645 C 142.168 87.825 126.678 90.569 116.766 91.661 C 112.676 93.567 108.297 95.447 104.947 96.641 C 103.434 99.619 101.322 102.922 99.714 104.326 C 99.634 104.396 99.553 104.462 99.471 104.528 C 98.876 107.911 98.304 111.569 97.69 114.174 Z M 198.457 213.619 C 198.203 213.815 197.933 214.015 197.655 214.221 C 198.018 214.258 198.38 214.3 198.741 214.344 C 198.641 214.098 198.547 213.857 198.457 213.619 Z M 172.785 166.631 C 172.661 166.658 172.532 166.684 172.399 166.71 C 172.571 166.78 172.739 166.852 172.905 166.926 C 172.864 166.829 172.825 166.73 172.785 166.631 Z M 117.785 145.081 C 117.259 145.077 116.737 145.073 116.219 145.069 C 116.649 145.164 117.115 145.259 117.613 145.352 C 117.662 145.261 117.72 145.171 117.785 145.081 Z M 210.126 185.584 C 212.785 188.477 214.028 190.626 215.453 193.961 C 217.109 197.837 219.082 204.933 219.003 207.785 C 219.002 207.868 218.999 207.949 218.994 208.029 C 219.804 212.253 219.82 216.756 219.257 218.808 C 219.061 219.528 218.78 220 218.419 220.353 C 218.943 223.536 219.158 226.35 218.877 227.784 C 218.795 228.211 218.673 228.544 218.519 228.815 C 218.554 229.141 218.569 229.46 218.561 229.757 C 218.513 231.346 218.178 233.098 217.228 234.785 C 216.097 236.794 214 239.566 211.68 240.858 C 209.345 242.158 205.285 242.965 203.244 242.534 C 201.848 242.238 200.798 241.264 200.133 240.19 C 199.076 239.808 198 238.887 197.481 237.962 C 196.908 236.942 196.839 235.524 197.036 234.191 C 197.127 233.576 197.359 232.81 197.65 232.056 C 197.401 232.067 197.124 232.108 196.832 232.168 C 196.657 232.293 196.469 232.416 196.268 232.541 C 192.364 234.94 181.191 237.96 172.74 239.243 C 164.905 240.432 153.8 240.311 146.546 240.153 C 146.464 240.201 146.381 240.244 146.294 240.286 C 144.678 241.07 141.973 241.155 139.191 240.706 C 135.55 240.117 128.078 237.745 126.111 235.902 C 125.796 235.833 125.484 235.75 125.176 235.652 C 121.89 234.597 117.464 231.294 113.95 228.063 C 111.126 227.322 108.207 225.743 106.246 223.262 C 104.259 220.752 102.347 215.139 101.899 212.049 C 101.89 212.03 101.88 212.007 101.87 211.986 C 101.213 210.533 100.527 206.648 100.982 204.447 C 101.043 204.153 101.126 203.856 101.23 203.561 C 96.021 204.278 89.864 204.748 86.807 204.382 C 83.359 203.972 80.988 202.856 79.482 201.242 C 78.104 199.763 77.697 196.831 77.707 195.378 C 77.713 194.368 78.335 194.102 78.595 193.074 C 78.969 191.591 78.62 189.541 79.482 187.001 C 80.759 183.243 86.239 176.223 87.029 172.339 C 87.585 169.61 85.606 168.338 86.141 165.638 C 86.889 161.869 91.03 153.761 93.243 151.605 C 94.475 150.408 96.544 151.679 96.795 150.348 C 97.003 149.257 95.654 146.725 93.839 143.725 C 92.87 143.33 92.93 142.873 92.547 142.174 C 92.365 141.841 92.218 141.406 92.115 140.929 C 89.623 136.936 86.919 132.67 86.141 130.034 C 85.036 126.283 85.127 123.905 85.698 120.819 C 85.939 119.511 86.51 117.861 87.169 116.276 C 87.103 115.877 87.077 115.396 87.093 114.775 C 87.151 112.652 87.72 108.236 88.707 103.701 C 88.179 102.61 87.759 100.904 88.044 99.51 C 88.415 97.692 90.794 94.762 91.596 93.855 C 91.723 93.712 91.814 93.63 91.898 93.572 C 91.923 93.518 91.95 93.465 91.977 93.413 C 94.656 88.047 98.904 84.188 103.297 80.218 C 107.819 76.131 112.568 72.066 118.834 69.329 C 120.76 68.486 123.07 67.695 125.533 66.982 C 125.655 66.83 125.816 66.674 126.032 66.515 C 128.272 64.849 137.395 62.317 143.124 61.489 C 148.717 60.68 153.953 60.956 159.993 61.489 C 166.725 62.083 174.553 62.61 181.745 65.259 C 189.583 68.145 200.341 74.766 205.051 78.872 C 208.12 81.546 209.616 84.275 210.359 86.353 C 211.67 88.088 215.774 93.042 218.461 97.298 C 219.447 97.596 220.496 98.103 221.351 98.858 C 223.514 100.77 226.169 105.947 227.122 108.911 C 227.873 111.246 228.07 112.919 227.566 115.194 C 226.958 117.934 225.337 122.586 222.904 124.199 C 222.163 124.691 221.098 124.934 219.941 125.042 C 219.754 125.877 219.528 126.651 219.257 127.341 C 218.334 129.704 217.029 131.425 215.436 133.044 C 214.473 136.408 211.886 141.82 209.935 144.927 C 208.116 147.824 205.129 150.802 203.942 151.838 C 203.407 152.306 203.14 152.241 202.833 152.467 C 202.562 152.665 202.731 152.717 202.166 153.096 C 200.902 153.945 195.249 157.342 190.386 159.996 C 190.716 160.945 191.015 162.083 191.279 163.321 C 192.499 165.135 193.488 167.858 194.526 169.099 C 195.476 170.237 196.293 170.663 197.189 171.402 C 198.068 172.128 199.196 172.541 199.852 173.496 C 200.573 174.546 201.308 176.352 201.193 177.605 C 204.488 180.124 208.057 183.335 210.126 185.584 Z" style="fill: rgb(41, 205, 228); fill-opacity: 1; fill-rule: nonzero; stroke: none; stroke-dasharray: none; stroke-dashoffset: 0px; stroke-linecap: butt; stroke-linejoin: miter; stroke-miterlimit: 4; stroke-opacity: 1; stroke-width: 0.1; paint-order: normal; vector-effect: none; opacity: 1; mix-blend-mode: normal; isolation: auto;"/>
  <g transform="matrix(0.060529, 0, 0, -0.057111, 61.038663, 299.701207)" fill="#000000" stroke="none" style="">
    <path d="M1255 5031 c-6 -4 -32 -14 -60 -20 -89 -22 -226 -137 -261 -220 -19 -45 -18 -169 1 -209 21 -42 88 -100 143 -124 39 -16 61 -19 127 -15 87 6 103 11 304 104 89 41 231 89 326 109 56 12 84 13 139 4 38 -6 73 -13 77 -16 20 -12 8 -89 -19 -129 -44 -64 -196 -169 -282 -195 -14 -5 -56 -20 -95 -35 -63 -23 -245 -61 -415 -86 -171 -25 -391 -142 -545 -290 -84 -81 -195 -215 -195 -236 0 -6 -3 -13 -7 -15 -7 -3 -75 -134 -95 -183 -21 -52 -58 -214 -57 -250 1 -40 2 -39 9 10 18 116 58 242 111 348 110 216 345 440 564 535 137 60 455 125 455 94 0 -24 -39 -42 -91 -42 -107 0 -267 -44 -393 -107 -375 -189 -606 -548 -606 -943 0 -164 46 -307 135 -424 l36 -48 -46 -69 c-60 -90 -95 -189 -95 -272 0 -57 -4 -68 -34 -108 -78 -101 -135 -325 -106 -413 14 -43 72 -96 105 -96 14 0 44 -5 67 -11 43 -11 53 -9 161 36 15 6 17 1 17 -38 0 -62 24 -184 46 -232 77 -168 235 -302 429 -365 86 -28 85 -27 78 -45 -8 -22 -43 -18 -138 16 -198 72 -367 230 -419 394 -9 28 -21 77 -26 110 l-9 60 5 -70 c8 -120 67 -238 165 -331 108 -101 230 -169 359 -199 41 -10 94 -24 118 -31 23 -8 52 -14 62 -14 36 0 21 -18 -31 -34 -28 -10 -97 -37 -152 -62 -167 -74 -240 -166 -241 -304 -1 -101 47 -167 158 -219 100 -47 200 -64 381 -65 170 -1 210 6 315 59 92 47 115 106 57 149 -26 20 -40 20 -337 21 -298 0 -310 1 -337 21 -40 30 -40 56 1 102 62 68 193 125 466 202 120 34 164 54 360 167 25 14 78 48 119 74 41 27 79 49 85 49 6 0 5 4 -3 9 -7 5 -10 14 -7 20 9 14 43 14 51 1 3 -5 15 -10 26 -10 13 0 19 -7 19 -22 0 -13 9 -37 20 -55 76 -125 325 -62 387 98 l13 34 -6 -40 c-12 -83 -57 -140 -137 -175 -68 -30 -134 -36 -194 -16 -58 19 -87 47 -102 96 l-11 35 6 -40 c11 -79 86 -121 201 -113 115 8 221 80 238 160 4 18 12 38 17 45 12 15 11 420 -1 441 -7 11 -8 -15 -4 -74 3 -50 3 -108 -1 -130 l-8 -38 -24 49 c-24 47 -25 50 -8 80 14 27 15 40 5 105 -7 41 -16 111 -21 154 -16 151 -132 326 -300 454 -79 60 -107 92 -81 92 45 0 210 -151 283 -259 52 -76 118 -210 118 -239 0 -9 5 -24 11 -32 25 -35 -2 66 -37 138 -93 191 -229 338 -392 422 -35 18 -62 36 -60 40 2 4 44 41 95 84 159 132 265 267 350 446 18 36 56 90 85 121 104 110 138 282 86 438 -19 55 -35 78 -96 141 -40 41 -98 113 -128 160 -114 177 -206 261 -399 365 -38 21 -82 46 -96 56 -14 10 -45 21 -68 25 -22 4 -41 12 -41 18 0 6 23 24 51 39 78 44 163 120 214 191 104 146 74 296 -74 371 -58 29 -187 47 -255 35 -28 -5 -82 -14 -121 -21 -84 -14 -182 -52 -324 -124 -148 -75 -198 -93 -248 -87 -58 6 -83 32 -83 88 0 25 6 57 14 73 18 33 88 98 141 131 132 79 152 130 51 130 -18 0 -36 -4 -41 -9z m85 -21 c0 -6 -28 -28 -62 -50 -88 -55 -166 -119 -188 -156 -11 -17 -22 -55 -26 -86 -6 -51 -4 -57 22 -87 27 -30 34 -32 99 -34 70 -2 72 -1 249 86 185 91 234 108 376 131 265 43 433 -47 417 -225 -8 -96 -107 -225 -223 -291 -29 -16 -58 -35 -64 -43 -7 -8 -28 -17 -49 -21 -41 -7 -63 -22 -55 -35 3 -5 13 -9 22 -9 23 0 102 -31 102 -40 0 -8 -48 -20 -85 -22 -24 -2 -355 32 -372 37 -42 14 4 39 190 106 248 89 397 213 397 331 0 60 -18 73 -116 86 -82 11 -94 10 -234 -30 -109 -31 -125 -37 -248 -94 -40 -19 -75 -34 -77 -34 -3 0 -35 -14 -72 -31 -44 -20 -90 -32 -134 -36 -58 -5 -74 -2 -125 21 -102 47 -144 105 -144 200 0 131 109 251 285 312 67 24 115 29 115 14z m728 -871 c163 -90 232 -137 308 -213 79 -80 148 -170 142 -187 -2 -5 -24 17 -50 49 -121 146 -212 219 -391 312 -87 45 -117 70 -82 70 9 0 42 -14 73 -31z m-520 -8 c37 -5 112 -15 167 -21 83 -10 285 -58 361 -86 17 -7 17 -6 6 9 -8 9 -49 29 -93 44 -76 27 -99 43 -61 43 28 0 114 -31 144 -51 14 -11 28 -19 31 -19 18 0 209 -143 259 -193 56 -58 198 -250 198 -269 0 -4 -8 -8 -19 -8 -10 0 -33 -15 -51 -32 -90 -91 -123 -289 -67 -403 43 -89 95 -135 152 -135 36 0 28 -20 -17 -44 -39 -22 -82 -86 -61 -93 25 -9 -113 -197 -200 -271 -67 -59 -121 -94 -207 -137 -87 -43 -102 -54 -94 -67 3 -5 34 7 69 27 63 35 86 34 66 -3 -5 -10 -17 -24 -25 -32 -28 -23 -18 -47 34 -81 28 -18 50 -36 50 -41 0 -12 -4 -11 -72 17 -34 14 -64 23 -66 20 -11 -10 19 -31 62 -44 141 -41 329 -214 409 -376 26 -52 54 -171 43 -182 -3 -3 -14 1 -23 10 -48 42 -133 42 -224 -2 -44 -21 -59 -20 -59 5 0 9 -15 48 -34 88 -40 88 -98 156 -132 156 -32 0 -30 -15 6 -57 35 -39 39 -63 10 -63 -37 0 -21 -27 19 -34 22 -3 46 -13 54 -21 30 -29 77 -210 76 -288 0 -50 -2 -53 -49 -89 -65 -50 -83 -86 -78 -155 l5 -54 -101 -60 c-56 -32 -108 -59 -116 -59 -8 0 -35 -7 -60 -16 -93 -33 -457 -27 -610 10 -265 64 -443 182 -523 349 -47 97 -57 140 -57 236 0 114 39 256 100 361 14 25 34 63 44 85 11 22 29 53 42 68 13 15 26 44 30 65 14 75 32 86 95 55 18 -9 83 -27 144 -41 93 -21 144 -25 335 -29 228 -4 340 3 347 23 2 7 -51 9 -179 6 -199 -5 -361 7 -532 39 -110 20 -141 33 -151 57 -6 16 71 10 190 -15 91 -19 605 -31 605 -14 0 7 -37 11 -113 11 -231 0 -469 27 -622 71 -38 11 -78 22 -87 25 -9 3 -33 27 -52 54 -19 26 -44 51 -55 55 -33 10 -25 29 24 53 52 25 75 56 82 111 5 34 2 43 -22 65 -28 26 -51 32 -114 27 -44 -3 -84 -23 -143 -72 -26 -22 -51 -39 -56 -39 -13 0 -87 116 -107 167 -65 164 -69 302 -16 533 34 146 136 317 270 450 226 224 539 339 819 301z m1180 -646 c22 -44 26 -64 27 -160 l2 -110 -6 95 c-8 130 -33 179 -138 272 -17 15 -36 41 -41 57 -9 25 0 20 60 -37 38 -37 81 -89 96 -117z m-121 55 c33 -20 69 -69 94 -130 9 -22 14 -68 13 -125 0 -77 -4 -97 -25 -136 -44 -78 -77 -109 -119 -109 -65 0 -132 92 -146 200 -13 100 35 254 94 301 31 24 49 24 89 -1z m115 -432 c-23 -50 -77 -116 -87 -106 -4 3 14 31 38 61 25 31 48 65 52 77 4 12 9 19 12 17 2 -3 -4 -25 -15 -49z m-144 -205 c-26 -59 -113 -201 -159 -258 -64 -81 -228 -235 -249 -235 -14 0 -1 55 16 65 37 22 161 124 202 167 62 64 142 185 142 214 0 29 29 73 47 74 10 0 10 -6 1 -27z m-1717 -164 c38 -38 12 -88 -70 -136 -25 -14 -52 -35 -59 -45 -10 -13 -26 -18 -63 -18 -27 0 -49 -4 -49 -10 0 -6 28 -10 63 -10 75 0 122 -21 154 -69 39 -57 26 -93 -18 -52 -34 31 -141 33 -172 2 -18 -18 -1 -23 37 -13 47 14 101 -2 138 -38 46 -46 36 -132 -20 -177 -32 -26 -41 -15 -44 54 -2 42 -8 68 -15 71 -9 2 -13 -11 -13 -48 0 -66 -21 -105 -70 -130 -66 -34 -115 -23 -175 39 -26 28 -30 41 -33 102 -8 142 55 283 181 399 103 96 183 124 228 79z m64 -360 c7 -11 -22 -49 -37 -49 -15 0 -21 30 -8 45 15 18 36 20 45 4z m-478 -219 c25 -44 85 -82 138 -88 49 -5 61 -26 20 -36 -28 -7 -102 7 -118 23 -14 14 -27 14 -27 1 0 -20 65 -50 109 -50 42 0 43 -1 37 -27 -27 -120 -81 -197 -170 -242 -42 -22 -49 -23 -72 -10 -33 17 -64 78 -64 124 0 39 29 153 55 212 44 100 55 123 64 123 6 0 18 -14 28 -30z m311 -103 c-18 -37 -36 -67 -40 -67 -4 0 -8 10 -10 23 -2 12 -9 21 -16 20 -17 -4 -15 18 4 46 21 30 76 63 87 52 4 -4 -7 -38 -25 -74z m-83 -129 c-8 -54 -38 -143 -57 -166 -28 -33 -178 -78 -178 -53 0 6 17 19 39 30 21 11 50 33 65 48 46 49 106 145 106 169 0 15 6 24 16 24 13 0 15 -8 9 -52z m1863 -238 c40 -25 49 -47 53 -135 4 -73 -7 -91 -39 -62 -49 42 -133 47 -201 12 -27 -13 -51 -21 -55 -18 -15 15 -4 55 24 86 37 43 40 66 5 43 -33 -22 -45 -20 -45 7 0 34 12 46 66 67 66 26 149 26 192 0z m-18 -225 c65 -33 90 -86 90 -188 0 -87 -22 -141 -74 -184 -87 -71 -231 -71 -264 1 -11 26 -5 59 29 143 11 27 11 35 0 45 -10 11 -17 7 -37 -17 -13 -16 -24 -40 -24 -53 0 -30 -26 -39 -50 -17 -25 22 -27 93 -5 135 19 36 156 140 198 150 39 9 103 2 137 -15z m-504 -390 c-8 -8 -17 -15 -21 -15 -3 0 -19 -10 -35 -22 -23 -16 -33 -19 -41 -11 -9 9 1 18 37 36 59 30 83 34 60 12z m-546 -56 c126 -11 223 -9 363 7 45 5 57 4 57 -7 -1 -24 -144 -95 -282 -139 -73 -23 -169 -53 -213 -67 -156 -50 -280 -119 -322 -182 -31 -46 -29 -74 6 -104 42 -35 209 -52 430 -43 91 4 184 6 206 6 45 -1 85 -23 85 -46 0 -26 -61 -72 -134 -100 -60 -24 -90 -28 -198 -32 -285 -9 -484 52 -546 168 -20 39 -23 54 -18 108 6 76 44 150 98 196 22 18 97 55 185 89 81 33 158 63 171 68 39 15 24 43 -28 51 -86 13 -124 24 -128 37 -4 11 8 13 64 8 38 -4 130 -12 204 -18z"/>
    <path d="M1008 3808 c-79 -7 -168 -38 -168 -57 0 -15 7 -14 66 8 28 11 86 23 128 27 70 6 94 16 64 26 -7 2 -48 1 -90 -4z"/>
    <path d="M1495 3754 c-33 -2 -154 -8 -270 -14 -175 -9 -224 -15 -294 -36 -188 -57 -294 -175 -336 -372 -31 -151 -9 -256 73 -342 38 -38 121 -88 178 -105 130 -39 814 -47 919 -11 126 44 187 86 230 161 46 78 59 140 59 275 -1 113 -3 131 -27 182 -37 84 -96 168 -131 189 -85 53 -247 82 -401 73z m190 -34 c80 -12 181 -44 211 -69 31 -25 70 -91 104 -176 26 -67 30 -88 30 -178 0 -219 -72 -330 -255 -393 l-80 -28 -280 1 c-370 1 -529 15 -611 53 -77 35 -140 91 -167 149 -32 68 -31 230 2 321 83 228 219 299 606 318 256 13 360 13 440 2z"/>
    <path d="M1559 3457 c-9 -7 -28 -36 -43 -65 -45 -89 -36 -271 16 -319 91 -86 207 -25 234 122 13 73 -2 155 -37 199 -20 25 -116 76 -142 76 -7 0 -19 -6 -28 -13z m120 -85 c78 -65 55 -270 -33 -293 -39 -11 -80 19 -97 69 -20 58 -17 191 5 225 25 38 79 38 125 -1z"/>
    <path d="M860 3439 c-33 -12 -50 -40 -66 -109 -21 -85 -17 -144 11 -204 31 -67 53 -87 102 -92 51 -6 83 12 113 66 21 38 25 58 25 130 0 90 -19 145 -68 198 -22 24 -70 28 -117 11z m77 -54 c52 -26 63 -53 63 -160 0 -94 -1 -97 -30 -126 -23 -24 -34 -28 -57 -23 -34 8 -69 48 -77 88 -3 16 -6 61 -6 101 0 67 3 76 29 104 33 36 37 36 78 16z"/>
    <path d="M2400 3579 c-71 -88 -95 -166 -93 -303 2 -119 18 -169 80 -257 34 -48 80 -85 91 -75 3 4 -15 28 -41 54 -58 59 -84 118 -99 223 -19 135 13 264 88 357 18 21 22 32 13 32 -8 0 -25 -14 -39 -31z"/>
    <path d="M1137 2644 c-20 -21 -37 -44 -37 -51 0 -27 23 -23 62 12 39 36 43 37 97 32 31 -2 74 -14 95 -26 40 -23 66 -22 66 2 0 23 -96 58 -174 64 l-71 6 -38 -39z"/>
    <path d="M948 2213 c-21 -25 -122 -190 -145 -238 -11 -22 -23 -52 -27 -67 -12 -51 11 -29 47 45 20 39 63 114 97 166 33 52 60 98 60 103 0 14 -16 9 -32 -9z"/>
    <path d="M1132 2102 c-18 -12 -20 -105 -3 -125 10 -13 30 -17 76 -17 84 0 155 -10 155 -23 0 -9 -81 -118 -180 -242 -45 -56 -120 -197 -120 -226 0 -44 84 -61 356 -74 113 -6 132 -4 144 10 18 22 31 111 20 141 -9 24 -11 24 -136 24 -104 0 -125 2 -121 14 3 8 45 69 94 136 171 236 191 267 198 310 4 25 3 46 -3 52 -21 21 -450 38 -480 20z m388 -31 c57 -5 65 -9 68 -28 4 -31 -25 -83 -111 -198 -113 -151 -188 -266 -184 -279 2 -7 49 -13 133 -16 l129 -5 -1 -48 c0 -26 -6 -53 -13 -60 -19 -19 -396 -4 -431 18 -29 18 25 150 94 232 48 55 172 221 187 250 19 36 1 43 -123 43 -94 0 -109 2 -117 18 -8 15 -9 64 -2 80 2 5 308 -1 371 -7z"/>
    <path d="M2134 1729 c4 -19 9 -67 13 -106 3 -40 10 -73 14 -73 10 0 10 130 0 174 -3 16 -12 31 -20 34 -11 4 -13 -3 -7 -29z"/>
    <path d="M1945 1142 c-37 -23 -54 -38 -44 -40 19 -4 111 48 117 66 6 19 -9 14 -73 -26z"/>
    <path d="M336 3066 c2 -54 9 -106 15 -115 7 -11 8 -5 3 22 -4 21 -10 73 -15 115 -7 73 -8 72 -3 -22z"/>
    <path d="M365 2895 c5 -40 55 -157 80 -185 8 -8 21 -29 29 -45 9 -17 16 -23 16 -15 0 8 -9 29 -21 45 -33 49 -81 147 -95 195 l-14 45 5 -40z"/>
    <path d="M454 2572 c-46 -53 -81 -146 -93 -242 -6 -46 -9 -85 -7 -88 3 -2 7 18 11 45 17 128 43 204 94 267 17 21 31 43 31 47 0 13 -1 11 -36 -29z"/>
    <path d="M318 2178 c-89 -137 -128 -300 -97 -413 14 -52 81 -116 139 -134 47 -14 179 -16 191 -4 5 5 -33 8 -84 8 -74 1 -100 5 -132 22 -83 44 -104 86 -106 206 0 100 19 167 75 262 65 111 75 144 14 53z"/>
  </g>
  <path stroke="rgb(255,0,0)" stroke-width="0" opacity="0.9607843137254902" d="M 168.727 88.486 C 172.505 89.607 176.085 91.935 178.272 94.559 C 179.487 96.017 180.675 98.275 181.351 100.264 C 181.404 100.306 181.455 100.349 181.505 100.393 C 182.52 101.298 183.305 103.155 183.726 105.21 C 184.281 107.919 184.492 112.149 183.726 115.682 C 183.183 118.19 181.907 121.749 180.587 124.315 C 180.313 125.367 180.007 126.307 179.667 127.051 C 178.673 129.229 177.976 130.264 175.894 131.449 C 172.952 133.124 166.608 134.257 162.132 134.801 C 158.052 135.296 152.298 136.001 149.964 134.936 C 147.464 135.148 144.062 135.151 141.012 135.218 C 135.238 135.347 123.948 135.576 120.592 134.801 C 119.68 134.59 119.159 134.351 118.787 134.05 C 118.173 134.133 117.576 134.202 117.021 134.241 C 116.167 134.489 115.015 134.584 113.744 134.382 C 111.296 133.991 105.607 132.177 104.198 130.612 C 103.817 130.189 103.657 129.657 103.608 129.119 C 103.319 128.742 103.048 128.336 102.793 127.905 C 102.649 127.788 102.506 127.662 102.359 127.53 C 101.141 126.434 99.186 124.494 98.364 122.504 C 97.476 120.356 97.06 116.75 97.476 114.964 C 97.494 114.883 97.515 114.803 97.537 114.722 C 97.488 114.418 97.466 114.115 97.476 113.827 C 97.504 112.975 97.96 111.77 98.54 110.593 C 98.565 110.264 98.61 109.96 98.681 109.699 C 98.766 109.383 98.893 109.093 99.051 108.821 C 99.092 108.544 99.138 108.277 99.188 108.022 C 99.741 105.247 101.669 101.571 102.832 99.806 C 102.835 99.801 102.838 99.796 102.84 99.791 C 102.968 99.206 103.314 98.646 103.691 98.179 C 103.981 97.82 104.431 97.519 104.899 97.242 C 105.287 96.365 106.213 95.417 106.766 94.887 C 106.789 94.866 106.811 94.846 106.833 94.824 C 107.151 94.147 107.691 93.469 108.542 92.913 C 112.669 90.22 129.178 87.498 137.842 86.631 C 145.134 85.9 152.343 86.493 157.375 87.049 C 159.224 87.254 161.087 87.457 162.642 87.747 C 164.894 87.805 167.119 88.008 168.727 88.486 Z M 118.467 102.787 C 118.259 102.702 118.04 102.626 117.809 102.559 C 116.732 103.425 113.868 104.119 112.473 104.168 C 111.958 104.756 111.369 105.392 110.758 106.042 C 110.75 106.106 110.741 106.167 110.73 106.226 C 110.543 107.27 109.607 108.753 108.655 109.527 C 108.649 109.566 108.643 109.602 108.639 109.637 C 108.582 109.961 108.458 110.285 108.291 110.589 C 108.287 110.633 108.283 110.677 108.278 110.722 C 108.568 111.679 108.435 113.052 108.32 114.366 C 108.263 115.034 108.165 115.914 108.02 116.846 C 108.162 116.933 108.286 117.034 108.385 117.148 C 108.954 117.811 109.128 119.322 109.006 120.563 C 109.021 120.582 109.035 120.602 109.05 120.618 C 109.347 120.977 109.43 120.887 109.715 121.246 C 110.241 121.914 111.339 124.143 111.935 124.807 C 112.28 125.192 112.602 125.163 112.823 125.435 C 112.921 125.556 112.95 125.7 112.978 125.852 C 114.104 125.814 116.074 126.137 117.9 126.4 C 118.628 126.282 119.357 126.148 120.055 125.999 C 120.361 124.793 121.52 123.066 122.21 122.354 C 122.651 121.898 123.234 121.782 123.605 121.606 C 123.974 120.102 124.459 118.468 124.847 116.972 C 124.723 116.244 124.661 115.403 124.661 114.646 C 124.412 112.917 124.197 111.183 124.044 109.706 C 123.814 109.166 123.581 108.669 123.351 108.232 C 122.077 105.813 120.457 103.596 118.467 102.787 Z M 162.956 124.389 C 163.32 124.018 163.376 123.991 163.844 123.968 C 164.106 123.957 164.542 123.982 165.038 124.041 C 165.528 123.475 166.013 122.988 166.388 122.674 C 166.883 121.051 167.54 119.147 168.097 117.292 C 167.442 114.038 166.889 109.786 166.72 106.796 C 166.508 106.647 166.288 106.49 166.063 106.317 C 163.95 104.694 159.49 101.182 157.185 101.29 C 156.206 101.337 155.393 101.874 154.669 102.63 C 153.935 105.419 152.438 109.224 150.831 112.6 C 151.314 114.061 151.512 116.49 151.517 118.63 C 152.332 120.346 153.139 122.529 153.697 124.541 C 153.859 124.68 153.977 124.828 154.078 124.981 C 155.447 125.438 156.983 126.01 158.378 126.615 C 159.115 126.463 159.905 126.377 160.673 126.363 C 160.914 126.359 161.179 126.362 161.46 126.372 C 162.051 125.483 162.634 124.715 162.956 124.389 Z M 152.031 39.101 C 151.937 39.209 151.841 39.312 151.743 39.408 C 149.9 41.214 145.33 42.776 142.419 43.597 C 140.39 44.17 137.847 44.43 136.266 44.455 C 134.69 45.037 130.384 45.107 128.467 44.794 C 127.024 44.558 125.513 44.08 125.152 43.361 C 124.996 43.342 124.853 43.321 124.726 43.299 C 123.452 43.064 122.723 42.427 121.841 41.413 C 120.768 40.185 118.759 36.918 118.696 35.645 C 118.507 35.112 118.348 34.543 118.225 33.993 C 117.754 31.884 117.671 27.887 118.225 26.035 C 118.616 24.73 119.625 23.864 120.223 23.313 C 120.623 22.942 120.862 23.07 121.332 22.684 C 122.144 22.019 123.232 20.21 124.662 19.123 C 126.309 17.873 128.875 16.167 130.877 15.772 C 131.198 15.709 131.546 15.668 131.903 15.647 C 132.815 14.694 135.796 13.737 137.283 13.558 C 137.451 13.539 137.62 13.526 137.79 13.521 C 137.849 13.429 137.921 13.344 138.012 13.26 C 138.41 12.888 139.256 12.483 140.01 12.421 C 140.86 12.352 142.353 12.542 142.895 13.049 C 143.382 13.506 143.762 14.592 143.339 15.143 C 143.06 15.508 142.091 15.934 141.041 16.249 C 141.019 16.485 140.94 16.698 140.612 16.909 C 140.066 17.262 138.309 17.839 136.536 18.249 C 136.51 18.34 136.473 18.423 136.426 18.495 C 136.04 19.093 134.639 18.661 133.319 19.542 C 131.708 20.618 128.478 23.711 126.043 26.351 C 126.495 27.951 125.126 31.508 125.836 33.873 C 126.002 34.429 126.332 35.032 126.748 35.651 C 126.872 35.628 127.018 35.622 127.2 35.639 C 128.096 35.725 130.797 36.534 132.966 37.458 C 133.887 37.181 135.348 37.213 136.84 37.199 C 138.396 35.74 143.911 33.524 146.934 32.633 C 147.042 32.428 147.192 32.231 147.398 32.049 C 148.259 31.289 150.693 30.38 153.468 29.569 C 153.591 29.302 153.766 29.046 153.993 28.817 C 155.437 27.375 161.18 25.719 164.426 25.047 C 167.266 24.46 170.104 24.469 172.417 24.629 C 172.446 24.631 172.476 24.632 172.504 24.635 C 172.943 24.349 173.464 24.284 174.319 24.149 C 176.267 23.845 180.738 23.365 183.642 24.149 C 184.765 24.454 186.105 25.007 187.379 25.657 C 189.069 25.619 192.196 26.468 193.504 28.069 C 195.501 30.516 196.597 39.111 195.724 41.055 C 195.491 41.569 195.001 41.964 194.462 42.171 C 194.41 43.203 194.285 44.115 194.074 44.763 C 193.439 46.734 192.19 47.426 190.3 48.743 C 189.933 49 189.477 49.297 188.962 49.617 C 188.518 50.61 187.645 51.78 186.369 52.753 C 185.353 53.527 183.465 54.585 181.185 55.711 C 179.755 56.591 178.068 57.442 176.222 58.018 C 176.159 58.038 176.094 58.059 176.026 58.079 C 175.243 58.414 174.457 58.743 173.675 59.057 C 176.222 59.496 179.074 60.073 179.742 60.92 C 180.33 61.666 180.301 63.038 179.075 63.642 C 176.162 65.079 156.652 63.609 153.328 62.806 C 152.154 62.522 151.893 62.306 151.774 61.758 C 151.62 61.047 152.215 59.393 153.328 58.617 C 154.81 57.581 159.1 56.905 161.118 56.936 C 161.19 56.817 161.258 56.717 161.318 56.643 C 161.556 56.344 161.801 56.266 162.206 56.222 C 162.348 56.208 162.537 56.2 162.748 56.203 C 166.177 54.033 175.126 49.387 177.807 49.043 C 177.827 49.04 177.844 49.038 177.861 49.036 C 178.064 48.737 178.389 48.467 178.757 48.145 C 179.585 47.424 181.233 47.364 182.532 45.841 C 184.095 44.009 185.855 38.213 187.515 34.634 C 187.508 34.563 187.5 34.494 187.491 34.426 C 185.86 34.22 183.625 33.598 181.822 32.883 C 179.024 33.684 172.449 34.083 167.832 34.204 C 166.796 34.545 165.73 34.872 164.713 35.151 C 162.714 36.528 155.996 38.529 152.031 39.101 Z M 135.126 239.648 C 138.685 238.297 161.991 239.645 171.046 241.373 C 171.796 240.938 172.899 240.635 173.622 240.605 C 174.62 240.567 176.242 241 176.508 241.653 C 176.791 242.351 175.814 244.201 174.954 244.794 C 174.446 245.143 173.557 245.388 172.756 245.433 C 172.361 245.521 171.898 245.591 171.376 245.646 C 171.279 246.232 171.01 246.838 170.514 247.249 C 169.358 248.204 165.212 249.378 162.132 249.783 C 160.477 250.733 156.617 251.848 154.438 252.008 C 154.376 252.034 154.313 252.06 154.252 252.086 C 154.131 252.298 153.948 252.486 153.646 252.633 C 153.145 252.874 152.285 253.095 151.226 253.286 C 150.586 253.531 149.923 253.777 149.244 254.025 C 149.214 254.181 149.108 254.342 148.794 254.561 C 147.229 255.648 137.16 259.533 131.23 261.079 C 130.978 261.833 130.474 262.692 130.181 263.065 C 129.859 263.472 129.445 263.207 129.069 263.693 C 128.35 264.627 126.872 268.528 126.851 269.558 C 126.848 269.703 126.885 269.808 126.938 269.891 C 130.212 270.124 133.785 270.643 134.524 271.353 C 134.648 271.473 134.741 271.619 134.799 271.78 C 140.051 271.635 152.64 271.59 160.852 272.015 C 161.034 271.655 161.377 271.703 161.952 271.616 C 163.017 271.45 165.931 271.188 167.279 271.616 C 168.373 271.962 169.414 272.681 169.721 273.5 C 169.93 274.058 169.8 275.008 169.537 275.749 C 169.567 276.191 169.456 276.636 169.215 276.971 C 168.482 277.978 165.511 278.906 162.594 279.586 C 162.544 279.773 162.47 279.943 162.365 280.081 C 161.635 281.062 158.794 281.618 156.371 281.967 C 153.338 282.405 149.384 282.244 145.274 281.967 C 140.499 281.644 133.827 281.194 129.292 279.874 C 126.819 279.153 123.834 278.043 121.752 276.932 C 121.094 276.894 120.441 276.77 119.969 276.588 C 118.94 276.194 118.178 275.472 117.526 274.285 C 116.61 272.607 115.695 269.188 115.752 266.745 C 115.773 265.847 115.897 264.754 116.106 263.698 C 116.154 262.498 116.291 261.372 116.45 260.522 C 116.706 259.149 117.259 257.922 117.78 257.381 C 118.119 257.031 118.382 256.957 118.892 256.962 C 118.917 256.962 118.944 256.963 118.972 256.963 C 119.152 256.643 119.34 256.356 119.526 256.117 C 120.034 255.465 120.864 254.955 121.725 254.531 C 122.57 253.763 123.465 253.209 124.408 253.071 C 124.543 253.053 124.689 253.041 124.844 253.04 C 125.215 252.776 125.258 252.659 125.74 252.347 C 126.682 251.741 128.739 250.025 130.181 249.835 C 130.439 249.799 130.732 249.793 131.036 249.812 C 132.81 249.032 134.659 248.361 136.092 248.014 C 137.875 247.006 140.832 245.966 142.642 245.628 C 142.745 245.125 143.024 244.639 143.473 244.308 C 138.938 243.868 134.908 243.264 134.017 242.371 C 133.262 241.616 133.598 240.229 135.126 239.648 Z M 129.687 183.639 C 129.594 183.58 129.514 183.519 129.45 183.457 C 128.725 182.749 128.913 181.313 130.117 180.734 C 132.306 179.679 144.379 180.141 150.715 181.105 C 153.852 181.179 156.68 181.395 157.483 182.08 C 158.247 182.733 158.206 184.132 157.054 184.794 C 157.286 184.918 157.479 185.037 157.609 185.133 C 157.952 185.386 158.025 185.635 158.053 185.97 C 158.084 186.376 157.939 187.03 157.609 187.436 C 157.242 187.887 156.662 187.754 155.832 188.484 C 154.114 189.993 148.799 196.65 147.619 197.907 C 147.205 198.349 147.356 198.359 146.953 198.537 C 146.862 198.576 146.745 198.627 146.607 198.683 C 146.705 199.454 146.707 200.26 146.51 200.99 C 146.042 202.725 144.912 204.21 142.959 206.226 C 141.914 207.303 140.092 208.918 138.088 210.579 C 143.845 210.125 153.957 210.7 155.832 211.73 C 156.709 212.212 156.405 212.811 156.277 213.615 C 156.084 214.824 155.895 217.422 153.835 218.433 C 150.333 220.15 136.184 219.22 132.525 218.433 C 130.809 218.062 130.205 217.503 129.673 216.799 C 129.39 216.954 129.154 217.061 128.974 217.116 C 128.302 217.32 128.127 217.057 127.865 216.697 C 127.47 216.154 126.899 215.197 127.42 213.556 C 128.588 209.889 139.143 195.487 140.961 193.659 C 141.381 193.237 141.426 193.229 141.678 193.237 C 142.059 191.492 143.547 188.993 144.795 187.875 C 138.641 187.51 131.608 186.853 130.465 185.909 C 130.193 185.685 130.153 185.386 130.231 185.074 C 129.81 184.658 129.701 184.108 129.687 183.639 Z" style="fill: rgb(26, 123, 216); fill-opacity: 1; fill-rule: nonzero; stroke: rgb(0, 0, 0); stroke-dasharray: none; stroke-dashoffset: 0px; stroke-linecap: butt; stroke-linejoin: miter; stroke-miterlimit: 4; stroke-opacity: 1; stroke-width: 1; paint-order: normal; vector-effect: none; opacity: 1; mix-blend-mode: normal; isolation: auto;" fill="rgb(255,0,0)"/>
  <path stroke="rgb(255,0,0)" stroke-width="0" opacity="0.9215686274509803" d="M 207.113 38.454 C 208.236 38.194 209.679 37.978 211.109 38.454 C 212.943 39.065 215.999 41.05 217.102 42.643 C 218.022 43.972 218.249 45.81 217.989 47.04 C 217.76 48.132 217.041 49.218 215.991 49.764 C 215.939 49.791 215.884 49.818 215.827 49.845 C 215.947 50.075 216.061 50.271 216.17 50.406 C 216.463 50.772 216.362 50.651 216.835 51.034 C 217.074 51.227 217.497 51.521 218.038 51.886 C 217.967 49.592 218.116 47.465 218.345 46.26 C 218.535 45.256 218.725 44.884 219.233 44.375 C 219.79 43.812 220.614 43.223 221.675 43.117 C 221.781 43.108 221.894 43.095 222.013 43.084 C 222.38 41.889 223.21 41.382 223.893 40.856 C 224.556 40.346 225.215 40.031 226.113 40.017 C 227.262 40.002 229.221 39.847 230.331 41.274 C 232.287 43.792 233.993 55.328 233.438 58.239 C 233.163 59.681 232.396 60.075 231.441 60.542 C 231.431 60.547 231.421 60.551 231.41 60.557 C 231.708 63.208 231.815 65.497 231.664 66.783 C 231.399 69.011 230.402 70.038 229.221 70.763 C 228.082 71.463 225.971 71.503 224.782 71.182 C 223.747 70.902 223.119 70.561 222.34 69.296 C 221.861 68.519 221.332 67.202 220.816 65.642 C 220.791 65.631 220.766 65.62 220.741 65.608 C 220.549 65.751 220.356 65.877 220.165 65.988 C 219.019 66.649 216.972 66.764 215.726 66.406 C 214.559 66.073 213.802 65.267 212.84 64.103 C 211.508 62.49 209.411 58.969 208.845 56.982 C 208.781 56.758 208.732 56.539 208.696 56.323 C 208.183 55.856 207.777 55.477 207.514 55.223 C 206.81 54.546 206.906 54.645 206.625 53.967 C 206.136 52.79 205.033 49.438 205.293 48.103 C 205.392 47.6 205.669 47.221 205.996 46.907 C 205.446 46.355 204.985 45.815 204.672 45.365 C 203.877 44.22 203.74 43.006 203.784 42.015 C 203.823 41.15 204.131 40.3 204.672 39.711 C 205.227 39.105 206.143 38.679 207.113 38.454 Z M 157.924 103.463 C 159.139 103.462 161.552 103.892 163.031 105.347 C 165.09 107.374 167.756 113.793 167.913 116.239 C 168.011 117.721 167.137 118.772 166.582 119.379 C 166.193 119.807 165.712 119.545 165.25 120.008 C 164.486 120.776 164.019 123.62 162.808 124.406 C 161.676 125.142 159.679 125.158 158.369 124.825 C 157.1 124.501 155.827 123.954 155.04 122.52 C 153.832 120.32 153.38 114.428 153.708 111.211 C 153.982 108.52 155.207 105.451 156.15 104.3 C 156.698 103.632 157.117 103.463 157.924 103.463 Z M 116.551 103.128 C 118.064 103.083 120.682 103.991 121.656 105.012 C 122.504 105.902 122.037 107.908 122.543 108.573 C 122.89 109.025 123.506 108.632 123.876 109.202 C 124.605 110.32 125.648 114.303 125.208 116.741 C 124.751 119.265 122.864 122.772 120.99 124.071 C 119.403 125.171 116.648 125.236 115.219 124.908 C 114.103 124.652 113.561 124.012 112.777 123.024 C 111.68 121.638 110.19 118.962 109.67 116.741 C 109.144 114.495 109.041 111.667 109.67 109.62 C 110.249 107.74 111.729 105.897 112.998 104.802 C 114.069 103.881 115.221 103.166 116.551 103.128 Z" style="fill-opacity: 1; fill-rule: nonzero; stroke: none; stroke-dasharray: none; stroke-dashoffset: 0px; stroke-linecap: butt; stroke-linejoin: miter; stroke-miterlimit: 4; stroke-opacity: 1; stroke-width: 0.1; paint-order: normal; vector-effect: none; opacity: 1; mix-blend-mode: normal; isolation: auto; fill: rgba(143, 59, 42, 0.027);"/>
  <path stroke-width="0" opacity="0.9254901960784314" d="M 157.958 105.809 C 158.116 105.828 158.301 105.851 158.509 105.883 C 158.547 105.855 158.585 105.831 158.623 105.809 C 159.411 105.4 162.302 106.084 162.84 106.857 C 162.967 107.038 163.029 107.312 163.042 107.623 C 163.077 107.656 163.109 107.688 163.138 107.721 C 163.272 107.842 163.395 107.974 163.506 108.114 C 165.164 110.197 165.924 116.03 165.726 118.586 C 165.588 120.365 164.607 121.848 163.95 122.565 C 163.532 123.022 163.228 122.973 162.618 123.193 C 161.72 123.519 159.693 124.247 158.845 124.24 C 158.318 124.236 158.164 124.203 157.735 123.822 C 156.917 123.094 155.196 121.025 154.628 119.005 C 154.02 116.844 154.105 113.103 154.464 110.7 C 154.46 109.541 154.606 108.317 154.85 107.695 C 155.158 106.906 155.567 106.395 156.404 106.228 C 156.875 105.816 157.228 105.73 157.958 105.809 Z M 121.777 121.913 C 121.365 122.554 120.573 122.994 119.669 123.29 C 119.632 123.323 119.595 123.352 119.557 123.38 C 119.085 123.712 118.244 123.804 117.402 123.749 C 116.576 123.836 115.834 123.841 115.375 123.802 C 114.945 123.888 114.526 123.836 114.23 123.589 C 113.994 123.391 113.749 122.936 113.512 122.303 C 112.88 122.042 112.334 121.702 112.01 121.285 C 110.682 119.577 111.201 113.32 111.565 112.07 C 111.587 111.997 111.61 111.933 111.632 111.877 C 111.546 110.424 111.583 109.258 111.787 108.719 C 111.886 108.463 112.048 108.297 112.245 108.185 C 112.287 107.612 112.356 107.14 112.454 106.833 C 112.64 106.248 112.841 105.953 113.283 105.837 C 113.389 105.726 113.549 105.654 113.787 105.578 C 114.623 105.311 117.412 105.106 118.669 105.578 C 119.763 105.988 120.814 106.842 121.11 107.881 C 121.226 108.283 121.241 108.876 121.178 109.51 C 122.288 112.211 123.162 119.763 121.777 121.913 Z" style="fill-opacity: 1; fill-rule: nonzero; stroke-dasharray: none; stroke-dashoffset: 0px; stroke-linecap: butt; stroke-linejoin: miter; stroke-miterlimit: 4; stroke-opacity: 1; stroke-width: 1; paint-order: normal; vector-effect: none; opacity: 1; mix-blend-mode: normal; isolation: auto; stroke: rgb(0, 0, 0); fill: rgba(131, 57, 54, 0.004);"/>
  <path stroke="rgb(255,0,0)" stroke-width="0" opacity="0.8941176470588236" d="M 157.513 105.23 C 158.418 105.224 161.362 106.139 162.174 106.694 C 162.652 107.02 162.516 107.415 162.84 107.742 C 163.218 108.123 163.997 107.96 164.395 108.788 C 165.235 110.545 165.773 118.233 165.282 120.518 C 165.009 121.79 164.621 122.247 163.728 122.82 C 162.577 123.563 159.859 124.725 158.401 124.077 C 156.719 123.331 155.279 120.026 154.628 117.586 C 153.931 114.97 154.073 110.873 154.628 108.788 C 155.018 107.322 156.057 106.185 156.626 105.647 C 156.954 105.337 157.037 105.231 157.513 105.23 Z M 114.23 105.857 C 115.567 104.949 118.298 105.401 119.557 105.857 C 120.535 106.211 121.079 106.78 121.555 107.742 C 122.211 109.066 122.426 111.571 122.444 113.606 C 122.459 115.751 121.543 118.669 121.555 120.308 C 121.562 121.419 122.543 122.188 121.999 122.82 C 121.199 123.75 116.854 124.835 115.118 124.287 C 113.559 123.796 112.446 122.009 111.787 120.308 C 111.018 118.311 110.932 115.184 111.344 112.768 C 111.754 110.368 112.668 106.92 114.23 105.857 Z" style="fill-opacity: 1; fill-rule: nonzero; stroke: rgb(0, 0, 0); stroke-dasharray: none; stroke-dashoffset: 0px; stroke-linecap: butt; stroke-linejoin: miter; stroke-miterlimit: 4; stroke-opacity: 1; stroke-width: 1; paint-order: normal; vector-effect: none; opacity: 1; mix-blend-mode: normal; isolation: auto; fill: rgba(26, 123, 216, 0.02);"/>
  <path stroke="rgb(255,0,0)" stroke-width="0" opacity="0.9254901960784314" d="M 158.179 105.974 C 159.623 105.873 162.02 106.435 162.84 107.019 C 163.381 107.407 163.253 107.645 163.506 108.486 C 164.035 110.239 165.803 115.732 165.504 118.331 C 165.272 120.349 163.783 122.331 163.063 123.147 C 162.663 123.598 162.515 123.596 161.952 123.776 C 161.046 124.064 158.935 124.938 157.735 124.403 C 156.351 123.787 155.043 121.787 154.406 119.585 C 153.547 116.618 153.185 109.482 154.406 107.439 C 155.177 106.149 156.825 106.067 158.179 105.974 Z M 121.332 108.277 C 121.551 108.54 121.556 109.027 121.453 109.546 C 121.66 109.658 121.847 109.794 121.999 109.952 C 123.022 111.012 123.624 114.041 123.33 116.235 C 123 118.695 121.446 122.989 119.557 123.985 C 117.897 124.86 114.49 123.723 113.119 122.937 C 112.09 122.347 111.699 121.668 111.344 120.425 C 110.809 118.552 110.858 114.231 111.344 112.047 C 111.561 111.068 111.889 110.017 112.304 109.231 C 112.186 108.535 112.149 107.862 112.232 107.439 C 112.398 106.589 112.975 105.747 113.787 105.554 C 114.485 105.388 115.842 105.469 116.985 105.951 C 118.275 106.213 119.675 106.693 120.001 107.229 C 120.079 107.357 120.114 107.519 120.118 107.699 C 120.683 107.842 121.135 108.039 121.332 108.277 Z" style="fill-opacity: 1; fill-rule: nonzero; stroke: rgb(0, 0, 0); stroke-dasharray: none; stroke-dashoffset: 0px; stroke-linecap: butt; stroke-linejoin: miter; stroke-miterlimit: 4; stroke-opacity: 1; stroke-width: 1; paint-order: normal; vector-effect: none; opacity: 1; mix-blend-mode: normal; isolation: auto; fill: rgba(156, 78, 112, 0);"/>
  <path stroke-width="0" opacity="0.8980392156862745" d="M 155.737 105.438 C 156.492 104.847 158.307 105.703 159.067 106.066 C 159.627 106.332 159.609 106.771 160.177 107.114 C 161.009 107.616 163.104 107.277 163.95 108.579 C 165.309 110.67 165.659 118.302 164.838 121.146 C 164.268 123.121 162.917 124.707 161.509 125.125 C 160.104 125.541 157.572 125.08 156.404 123.659 C 154.781 121.687 154.647 115.589 154.628 112.349 C 154.612 109.688 154.705 106.247 155.737 105.438 Z M 113.787 106.694 C 115.101 105.972 117.281 106.561 118.669 107.114 C 119.998 107.642 121.357 108.62 121.999 109.836 C 122.693 111.15 122.394 113.929 122.444 114.861 C 122.466 115.318 122.514 115.227 122.444 115.7 C 122.283 116.757 121.304 120.38 120.89 121.774 C 120.625 122.655 120.529 123.091 120.223 123.659 C 119.929 124.204 119.847 124.955 119.114 125.125 C 117.867 125.414 113.707 124.908 112.232 123.241 C 110.466 121.242 110.007 115.672 110.457 112.768 C 110.834 110.331 112.249 107.54 113.787 106.694 Z M 220.824 66.204 C 221.689 66.341 223.317 67.454 223.898 68.16 C 224.333 68.689 224.559 69.189 224.457 69.837 C 224.32 70.702 223.471 72.509 222.501 72.911 C 221.466 73.339 219.082 72.846 218.309 72.072 C 217.603 71.366 217.55 69.639 217.75 68.719 C 217.923 67.917 218.593 67.18 219.147 66.763 C 219.637 66.393 220.176 66.101 220.824 66.204 Z M 229.655 52.454 C 230.805 52.432 233.984 52.699 234.964 53.852 C 235.954 55.015 235.896 58.029 235.523 59.441 C 235.226 60.566 234.487 61.7 233.567 61.956 C 232.518 62.247 230.349 61.629 229.375 60.559 C 228.248 59.32 227.687 55.679 227.698 54.411 C 227.705 53.699 227.931 53.339 228.257 53.013 C 228.583 52.687 228.969 52.467 229.655 52.454 Z M 240.051 39.376 C 241.515 39.337 245.345 39.317 246.478 40.494 C 247.524 41.579 247.946 44.667 247.037 45.803 C 245.986 47.116 241.177 47.962 239.492 47.201 C 238.029 46.54 237.064 43.757 236.976 42.45 C 236.91 41.45 237.529 40.44 238.094 39.935 C 238.595 39.487 239.132 39.4 240.051 39.376 Z M 242.51 9.53 C 251.719 8.351 270.702 8.48 279.957 11.206 C 286.892 13.25 293.809 17.493 295.327 20.987 C 296.446 23.562 295.015 27.128 292.812 29.092 C 290.002 31.596 283.682 32.284 277.721 33.004 C 270.377 33.891 259.9 33.598 251.452 33.004 C 243.343 32.434 233.228 31.388 227.978 29.651 C 224.554 28.517 221.842 27.344 220.991 25.459 C 220.972 25.417 220.955 25.374 220.938 25.331 C 220.784 25.234 220.651 25.127 220.544 25.012 C 219.731 24.13 219.672 21.749 219.985 20.54 C 220.259 19.488 220.724 19.037 221.942 18.025 C 222.184 17.824 222.457 17.594 222.758 17.344 C 223.221 16.708 223.773 16.129 224.289 15.678 C 225.104 14.965 225.85 14.393 227.001 14.118 C 229.122 12.701 231.617 11.366 234.238 10.759 C 235.607 10.442 237.368 10.214 239.329 10.071 C 240.35 9.854 241.412 9.671 242.51 9.53 Z" style="fill-opacity: 1; fill-rule: nonzero; stroke-dasharray: none; stroke-dashoffset: 0px; stroke-linecap: butt; stroke-linejoin: miter; stroke-miterlimit: 4; stroke-opacity: 1; stroke-width: 1; paint-order: normal; vector-effect: none; opacity: 1; mix-blend-mode: normal; isolation: auto; fill: rgb(255, 255, 255); stroke: rgb(19, 19, 19);"/>
  <path fill="rgb(255,0,0)" stroke="rgb(255,0,0)" stroke-width="0" opacity="0.9490196078431372" d="M 255.253 291.708 C 256.559 291.717 258.7 292.356 259.445 293.105 C 260.019 293.682 260.075 294.578 260.004 295.341 C 259.928 296.159 260.115 297.222 258.886 297.856 C 256.921 298.869 248.597 299.348 242.607 299.314 C 241.704 299.805 240.869 300.194 240.162 300.427 C 237.391 301.339 234.462 300.868 232.896 300.427 C 231.891 300.143 231.384 299.921 230.94 299.029 C 230.248 297.641 230.095 293.786 230.381 291.764 C 230.618 290.094 231.066 288.711 232.058 287.572 C 233.133 286.338 234.815 285.393 236.809 284.777 C 239.262 284.019 245.353 284.963 246.031 283.939 C 246.517 283.204 243.814 281.677 243.795 280.585 C 243.777 279.537 244.627 277.825 245.751 277.511 C 247.246 277.094 251.564 278.648 252.738 280.026 C 253.699 281.155 253.35 283.634 253.297 284.498 C 253.269 284.947 252.91 285.083 253.017 285.336 C 253.155 285.659 254.089 285.659 254.415 286.174 C 254.852 286.867 255.173 288.607 254.974 289.528 C 254.8 290.329 254.559 290.596 253.576 291.484 C 253.204 291.82 252.662 292.279 252.002 292.812 C 253.576 292.595 254.084 291.699 255.253 291.708 Z" style="fill: rgba(143, 59, 42, 0.027); fill-opacity: 1; fill-rule: nonzero; stroke: none; stroke-dasharray: none; stroke-dashoffset: 0px; stroke-linecap: butt; stroke-linejoin: miter; stroke-miterlimit: 4; stroke-opacity: 1; stroke-width: 0.1px; paint-order: normal; vector-effect: none; opacity: 1; mix-blend-mode: normal; isolation: auto;"/>
  <path stroke="rgb(255,0,0)" stroke-width="0" opacity="0.8901960784313725" d="M 238.486 18.621 C 239.77 18.334 244.057 18.899 244.913 20.019 C 245.63 20.957 245.22 23.398 244.354 24.21 C 243.403 25.102 240.192 24.892 239.044 24.769 C 238.353 24.695 237.977 24.691 237.647 24.21 C 237.149 23.485 236.804 20.975 237.088 20.019 C 237.298 19.313 237.692 18.799 238.486 18.621 Z M 254.359 18.174 C 255.843 17.962 259.185 17.747 260.227 18.733 C 261.187 19.64 261.589 22.373 260.786 23.484 C 259.838 24.796 255.329 25.626 253.8 25.44 C 252.817 25.321 252.268 24.745 251.844 24.043 C 251.356 23.236 251.213 21.533 251.285 20.689 C 251.337 20.08 251.45 19.682 251.844 19.292 C 252.345 18.796 253.264 18.33 254.359 18.174 Z M 268.443 18.621 C 270.106 17.975 275.261 18.139 276.548 19.18 C 277.484 19.938 277.804 21.857 277.107 22.813 C 276.132 24.149 270.693 25.494 269.002 25.328 C 267.982 25.228 267.467 24.592 267.046 23.931 C 266.595 23.223 266.278 22.004 266.487 21.136 C 266.706 20.229 267.3 19.066 268.443 18.621 Z" style="fill-opacity: 1; fill-rule: nonzero; stroke: none; stroke-dasharray: none; stroke-dashoffset: 0px; stroke-linecap: butt; stroke-linejoin: miter; stroke-miterlimit: 4; stroke-opacity: 1; stroke-width: 0.1px; paint-order: normal; vector-effect: none; opacity: 1; mix-blend-mode: normal; isolation: auto;"/>
</svg>