<?xml version="1.0" encoding="utf-8"?>
<svg version="1.0" xmlns="http://www.w3.org/2000/svg" width="300pt" height="516pt" viewBox="0 0 300 516" preserveAspectRatio="none">
  <g transform="translate(0.000000,302.000000) scale(0.100000,-0.100000)" fill="#000000" stroke="none">
    <path d="M1260 2171 c-137 -19 -220 -118 -220 -261 0 -132 72 -212 216 -240 85 -17 431 -8 502 12 103 30 156 111 155 239 -1 116 -38 185 -126 231 -39 21 -57 22 -257 24 -118 1 -240 -1 -270 -5z m481 -22 c54 -14 101 -50 127 -97 20 -36 24 -56 23 -134 0 -82 -3 -96 -28 -136 -28 -45 -72 -75 -128 -88 -89 -19 -363 -24 -475 -8 -120 17 -200 100 -200 209 0 90 19 142 69 194 42 43 53 49 112 59 35 6 98 11 139 12 41 1 75 2 76 3 6 6 255 -6 285 -14z"/>
    <path d="M1191 2046 c-29 -31 -40 -82 -36 -159 3 -55 7 -65 35 -90 26 -23 39 -28 63 -23 57 12 77 45 81 136 3 73 -9 115 -41 140 -35 27 -74 26 -102 -4z m93 -22 c22 -22 22 -170 0 -202 -19 -28 -55 -28 -80 -1 -26 29 -25 171 2 200 21 23 57 25 78 3z"/>
    <path stroke="rgb(255,0,0)" stroke-width="0" opacity="0.9490196078431372" d="M 2145.429 1610.561 C 2172.764 1634.764 2190.266 1655.334 2197.005 1678.256 C 2197.651 1680.455 2198.19 1682.759 2198.624 1685.136 C 2209.844 1684.962 2222.256 1686.724 2231.543 1693.452 C 2251.15 1707.657 2271.001 1744.148 2279.897 1780.488 C 2280.977 1784.9 2281.948 1789.611 2282.812 1794.565 C 2294.019 1806.702 2299.255 1823.42 2302.922 1844.038 C 2308.599 1875.963 2310.189 1949.2 2296.475 1969.756 C 2292.096 1976.319 2284.049 1977.954 2275.97 1978.68 C 2273.697 1996.292 2270.356 2011.472 2266.081 2019.951 C 2260.397 2031.227 2253.896 2034.321 2243.517 2036.069 C 2242.953 2036.164 2242.373 2036.218 2241.779 2036.235 C 2237.465 2042.005 2232.958 2047.079 2228.32 2051.266 C 2226.916 2052.533 2225.418 2053.737 2223.84 2054.881 C 2216.358 2097.673 2206.148 2135.326 2193.321 2150.275 C 2189.171 2155.111 2183.98 2158.107 2178.2 2159.891 C 2176.872 2165.954 2174.644 2172.187 2171.217 2178.365 C 2163.143 2192.92 2140.153 2213.481 2117.946 2232.09 C 2117.007 2233.235 2116.037 2234.361 2115.035 2235.468 C 2105.898 2245.56 2092.762 2256.032 2077.158 2266.193 C 2074.758 2268.356 2072.768 2270.257 2071.287 2271.848 C 2064.802 2278.815 2068.794 2279.887 2061.617 2284.742 C 2051.465 2291.61 2020.707 2306.119 1994.593 2315.288 C 1983.281 2328.58 1972.423 2339.764 1963.068 2347.371 C 1931.145 2373.329 1883.623 2380.476 1863.138 2379.607 C 1854.157 2379.225 1848.645 2376.853 1844.294 2371.934 C 1838.249 2375.481 1831.891 2378.692 1825.377 2381.449 C 1796.046 2393.861 1751.183 2399.899 1712.952 2400.7 C 1700.57 2404.217 1687.69 2407.05 1676.173 2409.079 C 1652.548 2413.241 1623.543 2413.625 1597.523 2412.037 C 1576.266 2416.051 1549.619 2416.557 1527.89 2416.447 C 1490.91 2416.259 1434.083 2411.012 1411.842 2397.106 C 1404.141 2392.291 1400.878 2384.583 1398.283 2377.038 C 1348.913 2362.349 1291.957 2339.709 1270.927 2326.188 C 1268.181 2324.423 1265.75 2322.813 1263.599 2321.284 C 1261.751 2321.122 1259.895 2320.916 1258.033 2320.662 C 1213.732 2314.625 1129.762 2283.157 1087.185 2243.297 C 1062.669 2220.345 1043.558 2191.82 1028.726 2159.32 C 1021.097 2152.022 1014.397 2144.675 1008.899 2137.38 C 992.294 2115.346 981.922 2086.921 975.055 2056.848 C 972.446 2053.776 970.168 2051.225 968.375 2049.424 C 962.388 2043.411 959.484 2046.474 955.48 2039.753 C 948.01 2027.213 937.269 1994.377 936.139 1965.611 C 934.868 1933.245 938.116 1894.808 952.046 1852.918 C 951.85 1836.092 953.285 1820.62 957.322 1805.355 C 959.702 1796.356 962.343 1788.38 965.616 1780.814 C 965.166 1779.354 964.85 1777.723 964.691 1775.883 C 961.494 1738.901 998.009 1637.254 1035.609 1588.917 C 1050.721 1569.489 1068.326 1552.123 1088.123 1537.07 C 1090.388 1528.343 1093.984 1519.844 1099.158 1512.934 C 1112.584 1495.006 1134.652 1479.69 1166.809 1467.767 C 1163.447 1466.663 1160.524 1465.45 1158.103 1464.12 C 1147.734 1458.424 1146.483 1451.903 1145.209 1441.555 C 1143.9 1430.928 1139.659 1413.205 1145.756 1397.308 C 1111.416 1389.829 1061.666 1368.736 1043.437 1348.073 C 1039.52 1343.633 1036.263 1338.394 1033.645 1332.765 C 991.591 1341.149 930.817 1346.875 905.285 1343.467 C 897.213 1342.39 890.838 1340.431 885.494 1337.9 C 875.291 1342.979 863.835 1343.702 855.551 1350.836 C 843.68 1361.059 839.377 1378.166 826.539 1389.518 C 812.215 1402.183 787.767 1404.62 771.738 1421.754 C 753.067 1441.713 743.298 1491.907 725.491 1510.053 C 720.53 1554.857 702.649 1617.962 681.019 1643.257 C 658.357 1669.759 613.473 1678.085 587.536 1678.716 C 567.101 1679.213 545.742 1667.554 535.959 1659.375 C 529.229 1653.748 532.078 1645.172 526.289 1640.034 C 519.291 1633.824 502.531 1634.748 494.053 1627.139 C 485.395 1619.368 477.436 1610.451 474.981 1593.732 C 468.473 1587.658 463.06 1580.713 458.773 1573.093 C 450.931 1563.371 445.349 1550.243 441.555 1535.499 C 434.414 1507.744 431.731 1449.048 441.555 1425.898 C 448.486 1409.567 463.566 1400.639 477.014 1396.886 C 490.436 1393.141 510.737 1396.424 522.144 1403.333 C 522.761 1403.707 523.348 1404.119 523.909 1404.566 C 524.551 1402.084 525.292 1399.913 526.289 1398.268 C 529.368 1393.184 532.228 1393.808 535.959 1388.597 C 542.104 1380.017 548.888 1357.622 558.524 1346.691 C 567.454 1336.561 581.516 1334.728 590.759 1324.126 C 601.313 1312.023 604.105 1290.28 616.548 1275.773 C 630.19 1259.867 650.56 1239.841 671.348 1233.867 C 685.271 1229.865 705.569 1230.498 721.838 1233.686 C 722.389 1232.96 722.906 1232.252 723.385 1231.565 C 731.001 1220.646 726.412 1215.979 736.279 1209 C 753.926 1196.519 811.123 1180.262 842.656 1176.764 C 846.922 1176.291 851.25 1175.929 855.574 1175.688 C 857.572 1170.234 860.152 1165.196 863.379 1161.107 C 875.596 1145.627 893.043 1132.828 924.626 1128.872 C 947.396 1126.02 990.355 1129.203 1035.201 1135.232 C 1047.904 1134.577 1059.972 1136.88 1070.011 1140.418 C 1070.914 1140.566 1071.816 1140.714 1072.716 1140.863 C 1065.709 1129.872 1059.075 1116.428 1056.792 1101.702 C 1050.978 1064.205 1065.194 968.722 1076.133 950.195 C 1078.118 946.834 1080.128 945.597 1082.322 945.092 C 1078.387 939.552 1075.725 932.979 1075.212 925.788 C 1073.347 899.664 1101.368 841.512 1126.789 809.741 C 1152.003 778.228 1187.045 754.117 1226.719 735.599 C 1244.723 727.195 1267.776 719.369 1291.271 712.98 C 1293.897 703.637 1297.938 694.833 1301.781 689.549 C 1307.47 681.727 1309.1 679.014 1324.346 676.654 C 1335.779 674.885 1357.649 675.776 1384.543 677.932 C 1385.095 677.495 1385.746 677.069 1386.514 676.654 C 1409.527 664.231 1515.832 660.1 1563.809 657.313 C 1598.117 655.32 1614.728 648.653 1647.476 655.751 C 1683.118 652.747 1784.133 663.535 1816.167 682.18 C 1834.455 692.825 1844.492 710.612 1849.141 726.139 C 1851.925 725.408 1854.754 724.869 1857.612 724.547 C 1885.374 721.422 1949.148 759.742 1960.766 756.783 C 1965.284 755.632 1960.757 751.462 1963.989 747.112 C 1970.728 738.042 1998.926 718.93 2012.342 705.206 C 2024.081 693.199 2031.218 679.685 2041.354 669.747 C 2050.635 660.648 2056.138 649.804 2070.366 647.182 C 2090.931 643.393 2137.654 649.391 2160.625 666.523 C 2184.303 684.183 2207.444 714.374 2208.979 753.559 C 2209.168 758.386 2208.983 763.812 2208.463 769.723 C 2210.452 772.075 2212.27 774.731 2213.884 777.676 C 2227.656 784.45 2239.319 792.184 2243.977 799.61 C 2253.831 815.316 2244.13 846.991 2237.53 857.633 C 2233.094 864.787 2223.197 858.59 2218.189 867.304 C 2208.466 884.22 2218.634 932.941 2205.294 980.128 C 2199.602 1000.261 2190.402 1028.2 2179.328 1058.624 C 2186.558 1061.521 2193.396 1064.459 2196.084 1071.308 C 2203.431 1090.029 2200.959 1119.711 2189.637 1148.673 C 2174.28 1187.962 2135.356 1244.903 2092.931 1284.062 C 2072.339 1303.069 2039.493 1321.741 2007.618 1338.64 C 2005.27 1352.619 2001.251 1366.21 1995.304 1376.164 C 1987.533 1389.171 1976.141 1399.757 1962.225 1409.046 C 1965.712 1425.638 1968.404 1441.976 1969.898 1455.556 C 2002.145 1462.476 2027.35 1470.495 2040.433 1479.777 C 2052.634 1488.434 2052.447 1496.968 2053.327 1508.789 C 2053.91 1516.622 2053.431 1528.281 2051.198 1539.211 C 2088.637 1563.272 2123.224 1590.902 2145.429 1610.561 Z M 1364.026 1193.305 C 1362.561 1193.769 1361.042 1194.034 1359.434 1194.016 C 1354.245 1194.693 1348.994 1194.956 1344.554 1194.675 C 1344.739 1195.315 1344.911 1195.945 1345.069 1196.566 C 1348.003 1208.074 1346.128 1221.589 1342.668 1234.208 C 1344.582 1235.488 1346.044 1236.802 1346.783 1238.036 C 1348.931 1241.622 1343.564 1247.797 1340.558 1253.658 C 1365.43 1254.358 1406.565 1261.572 1420.924 1267.048 C 1422.557 1267.671 1423.893 1268.415 1425.022 1269.228 C 1425.088 1269.217 1425.155 1269.207 1425.222 1269.197 C 1438.838 1267.118 1467.402 1265.702 1498.455 1265.586 C 1521.757 1263.418 1546.02 1262.084 1565.632 1262.162 C 1574.207 1259.932 1588.38 1259.84 1597.422 1261.884 C 1599.89 1252.56 1605.01 1239.981 1609.21 1228.535 C 1609.127 1228.48 1609.045 1228.423 1608.964 1228.366 C 1600.289 1222.216 1593.431 1190.809 1590.77 1167.669 C 1587.881 1164.255 1585.43 1158.601 1583.172 1152.131 C 1557.997 1124.976 1516.755 1070.651 1509.175 1045.345 C 1499.964 1038.832 1492.854 1032.279 1490.768 1027.431 C 1490.27 1026.273 1489.934 1025.028 1489.749 1023.738 C 1485.546 1020.829 1481.103 1017.561 1476.799 1013.463 C 1466.38 1003.543 1447.012 985.494 1436.119 971.576 C 1434.358 971.244 1432.867 970.88 1431.669 970.482 C 1421.243 967.022 1416.73 959.235 1421.999 954.364 C 1423.159 953.292 1425.345 952.229 1428.413 951.179 C 1429.438 947.019 1432.063 943.645 1434.893 942.545 C 1438.304 941.219 1443.545 943.072 1449.697 946.179 C 1482.087 940.339 1536.466 935.132 1583.74 931.281 C 1588.269 921.485 1592.931 909.655 1598.422 898.02 C 1532.537 900.443 1422.126 892.845 1382.242 890.968 C 1353.608 889.621 1336.244 893.357 1325.229 885.308 C 1325.749 897.273 1324.99 908.72 1322.648 915.41 C 1330.38 929.766 1337.209 945.369 1338.187 954.364 C 1338.487 957.129 1337.852 959.273 1336.874 961.161 C 1342.22 969.455 1346.745 978.139 1348.932 984.451 C 1349.812 986.991 1350.549 989.748 1351.121 992.575 C 1357.681 1000.209 1364.652 1010.519 1370.425 1020.864 C 1373.853 1020.729 1377.235 1021.11 1380.093 1022.059 C 1394.795 1026.939 1418.822 1066.508 1428.446 1076.859 C 1433.369 1082.154 1433.848 1081.756 1438.117 1086.53 C 1443.567 1092.626 1458.528 1104.817 1464.559 1114.677 C 1477.697 1127.179 1490.153 1142.012 1495.066 1154.224 C 1500.802 1168.484 1500.477 1190.006 1495.066 1196.13 C 1493.619 1197.768 1491.593 1199.012 1489.186 1199.689 C 1487.094 1202.051 1483.528 1204.057 1479.185 1205.344 C 1470.754 1210.858 1446.326 1208.402 1425.222 1204.726 C 1412.266 1202.469 1391.413 1197.471 1371.527 1191.605 C 1369.194 1192.26 1366.654 1192.833 1364.026 1193.305 Z M 1207.038 1228.927 C 1206.788 1228.288 1206.542 1227.651 1206.298 1227.015 C 1205.608 1227.403 1204.904 1227.783 1204.186 1228.156 C 1205.142 1228.405 1206.095 1228.657 1207.038 1228.927 Z M 1374.081 2177.905 C 1420.055 2179.917 1436.951 2172.08 1483.681 2171.458 C 1513.44 2171.062 1560.564 2168.978 1607.093 2168.339 C 1619.259 2158.914 1633.558 2151.063 1647.621 2148.433 C 1667.141 2144.782 1688.997 2154.039 1713.557 2162.517 C 1743.179 2154.25 1781.209 2147.309 1808.263 2139.703 C 1809.922 2138.738 1811.665 2137.809 1813.477 2136.907 C 1816.497 2131.727 1819.468 2127.017 1822.153 2123.105 C 1826.416 2116.894 1831.518 2112.152 1836.799 2107.925 C 1841.904 2097.674 1847.281 2087.964 1852.672 2079.605 C 1862.683 2052.007 1880.967 2014.627 1884.782 1984.953 C 1888.595 1955.298 1888.729 1921.816 1884.992 1891.528 C 1864.081 1870.012 1843.928 1840.405 1838.731 1809.039 C 1837.105 1799.223 1837 1787.311 1838.04 1774.141 C 1836.347 1772.119 1834.726 1770.382 1833.205 1768.975 C 1825.334 1761.693 1818.533 1767.918 1810.641 1762.528 C 1799.553 1754.956 1780.315 1737.56 1775.182 1720.622 C 1774.87 1719.591 1774.591 1718.512 1774.344 1717.391 C 1766.659 1713.237 1760.141 1709.718 1755.38 1707.268 C 1747.226 1703.071 1743.392 1702.533 1739.544 1700.243 C 1730.574 1696.777 1721.702 1693.825 1713.013 1691.61 C 1702.214 1688.857 1691.199 1687.17 1680.086 1686.146 C 1678.252 1688.706 1675.915 1691.027 1672.949 1692.992 C 1643.794 1712.304 1540.303 1709.325 1469.866 1709.11 C 1395.554 1708.882 1274.907 1714.558 1237.771 1689.768 C 1235.733 1688.407 1233.853 1686.891 1232.121 1685.246 C 1202.507 1702.815 1163.788 1733.959 1134.666 1759.397 C 1124.615 1776.464 1116.219 1791.34 1110.21 1797.987 C 1105.663 1803.018 1103.661 1801.823 1100.9 1803.731 C 1096.644 1877.171 1095.383 1978.879 1104.465 2035.469 C 1123.717 2060.031 1143.951 2083.938 1158.88 2103.53 C 1202.721 2126.535 1254.455 2143.009 1276.453 2163.169 C 1276.825 2163.51 1277.194 2163.851 1277.56 2164.193 C 1314.413 2170.826 1349.874 2176.846 1374.081 2177.905 Z" style="fill-opacity: 1; fill-rule: nonzero; stroke: none; stroke-dasharray: none; stroke-dashoffset: 0px; stroke-linecap: butt; stroke-linejoin: miter; stroke-miterlimit: 4; stroke-opacity: 1; stroke-width: 1px; paint-order: normal; vector-effect: none; opacity: 1; mix-blend-mode: normal; isolation: auto; fill: rgb(41, 205, 228);"/>
    <path d="M1264 2876 c-104 -48 -164 -133 -150 -210 10 -51 70 -101 141 -116 81 -17 133 -6 265 55 137 64 175 75 257 75 77 0 93 -6 93 -35 0 -31 -59 -81 -135 -115 -59 -27 -93 -36 -288 -80 -243 -54 -435 -211 -513 -417 -31 -82 -41 -204 -25 -286 25 -118 107 -241 205 -305 l38 -26 -36 -13 c-127 -43 -234 -36 -309 21 l-42 33 3 61 c4 76 -22 143 -66 166 -34 17 -175 17 -207 -1 -83 -46 -122 -183 -75 -261 20 -32 41 -46 91 -56 15 -3 31 -17 37 -31 37 -81 140 -164 246 -197 47 -15 82 -19 154 -16 79 3 91 2 88 -12 -24 -81 -11 -201 29 -279 54 -107 176 -182 335 -207 42 -6 44 -7 20 -17 -95 -38 -158 -85 -186 -139 -23 -45 -18 -112 11 -147 55 -65 228 -95 383 -67 106 19 156 44 160 80 3 22 -2 29 -32 41 -40 17 -141 19 -201 5 -55 -14 -169 -14 -194 0 -29 15 -26 41 7 72 37 35 53 42 203 94 147 50 263 106 333 159 46 35 49 36 67 19 10 -9 19 -25 19 -36 0 -28 58 -58 111 -58 51 0 98 26 133 73 19 26 21 40 18 157 -3 146 -25 250 -69 333 -35 63 -130 167 -177 192 -20 11 -36 22 -36 26 0 3 22 20 49 37 65 43 143 129 175 195 18 36 37 58 62 72 20 11 47 39 62 64 22 38 27 58 27 116 0 84 -22 136 -72 169 -18 13 -50 50 -69 82 -53 88 -99 139 -168 189 -70 49 -136 82 -206 100 l-45 12 50 25 c128 66 176 185 105 256 -80 81 -263 68 -454 -30 -89 -46 -108 -52 -164 -52 -58 -1 -66 2 -88 27 -13 15 -24 37 -24 47 0 25 43 74 107 121 80 59 47 81 -53 35z m-84 -158 c1 -61 65 -108 148 -108 37 0 70 10 141 45 51 25 101 45 112 45 10 0 19 4 19 9 0 8 27 18 80 27 108 21 193 7 233 -36 15 -17 27 -42 27 -55 0 -32 -35 -86 -74 -114 -17 -12 -46 -34 -65 -50 l-34 -28 22 -22 c28 -28 19 -44 -17 -30 -15 6 -67 13 -115 16 -57 4 -86 10 -84 17 2 6 8 11 13 11 27 1 183 61 225 86 51 32 89 82 89 117 0 70 -132 89 -275 40 -16 -6 -67 -28 -112 -49 -45 -22 -109 -46 -142 -55 -54 -13 -65 -13 -113 1 -29 9 -60 21 -69 28 -33 26 -48 81 -33 121 10 27 24 18 24 -16z m620 -344 c111 -29 165 -58 243 -132 31 -30 57 -52 57 -47 0 11 -100 105 -133 125 -16 10 -25 20 -20 23 10 6 130 -85 161 -121 31 -37 56 -74 84 -123 l28 -48 -34 -11 c-82 -27 -102 -213 -28 -270 38 -31 46 -24 10 9 -30 27 -33 34 -36 102 -2 61 1 80 18 107 23 38 40 47 75 38 53 -13 83 -134 51 -209 -17 -41 -103 -137 -123 -137 -12 0 -13 -3 -4 -14 9 -10 7 -17 -6 -27 -14 -12 -16 -12 -8 0 6 10 4 12 -4 7 -7 -5 -10 -15 -7 -23 3 -8 2 -12 -3 -8 -5 3 -19 -8 -31 -25 -22 -32 -115 -106 -165 -133 -16 -9 -25 -16 -20 -16 6 -1 30 10 54 24 l43 25 -31 -36 -32 -35 21 -35 21 -34 -36 16 c-56 23 -52 11 4 -14 49 -23 95 -62 165 -142 68 -76 74 -97 24 -75 -10 4 -25 5 -33 1 -8 -3 -15 -1 -15 4 0 6 7 10 15 10 8 0 15 5 15 11 0 17 -68 4 -91 -17 -19 -17 -21 -16 -59 21 -25 24 -44 36 -54 32 -23 -9 -20 -17 26 -67 22 -25 35 -34 29 -22 -16 30 -9 37 17 21 16 -10 26 -10 46 -1 31 14 33 9 6 -16 -19 -18 -19 -21 -5 -77 9 -33 18 -61 20 -64 10 -9 5 47 -6 78 -15 44 5 64 63 65 l43 1 19 -60 c10 -33 23 -69 28 -81 5 -11 8 -33 6 -48 l-3 -27 -22 20 c-12 12 -27 21 -33 21 -21 0 -9 20 13 21 19 1 18 2 -7 9 -16 5 -42 6 -57 3 -24 -4 -27 -8 -18 -19 10 -13 6 -18 -12 -16 -4 1 -29 -19 -55 -43 -26 -25 -50 -45 -52 -45 -2 0 -1 10 2 23 3 12 -5 0 -18 -28 -28 -59 -44 -75 -117 -114 -34 -19 -46 -30 -31 -28 12 0 22 4 22 8 0 4 7 9 15 13 32 12 13 -12 -32 -41 -42 -27 -70 -41 -148 -74 -11 -5 -65 -23 -120 -41 -120 -40 -190 -79 -210 -118 -21 -40 -19 -57 10 -84 36 -34 96 -39 215 -21 94 15 172 16 187 2 14 -14 -9 -37 -49 -48 -57 -16 -76 -18 -190 -18 -187 -2 -278 61 -234 160 21 48 43 70 113 113 34 21 64 45 68 54 7 18 -27 52 -51 52 -8 0 -14 4 -14 8 0 4 26 5 58 1 31 -4 82 -7 112 -7 42 1 35 3 -35 9 -167 16 -305 67 -363 133 -64 73 -92 229 -61 341 14 51 72 167 105 211 15 19 21 34 16 34 -6 0 -30 -25 -53 -55 -23 -31 -44 -53 -48 -50 -3 3 -1 9 5 13 13 8 26 54 13 46 -15 -9 -57 -87 -64 -119 l-7 -30 21 33 c11 17 23 32 25 32 2 0 -3 -21 -11 -47 -8 -27 -16 -53 -17 -60 -4 -24 -16 -26 -37 -7 -19 17 -19 19 -3 31 13 10 14 13 3 12 -19 -1 -57 -17 -44 -19 20 -3 -31 -19 -63 -19 -20 -1 -35 5 -38 14 -4 8 -17 15 -30 15 -44 0 -137 43 -182 84 -26 23 -43 33 -39 23 10 -28 -8 -12 -63 54 l-50 60 23 22 c13 12 15 16 6 9 -19 -15 -85 -13 -87 2 0 6 -6 29 -13 52 -11 36 -10 46 9 86 12 25 33 51 47 58 14 7 25 19 25 26 0 17 65 22 92 7 23 -12 23 -12 -5 -13 -15 0 -30 -7 -34 -15 -3 -9 -15 -15 -27 -13 -15 2 -26 -6 -39 -32 -26 -51 -9 -120 30 -120 12 0 12 3 -1 22 -21 29 -21 44 0 24 8 -9 24 -16 34 -16 10 0 22 -5 25 -11 12 -18 45 22 45 54 l0 29 -30 -32 c-35 -38 -64 -37 -68 3 -3 21 5 36 31 62 42 42 68 44 96 9 26 -33 28 -99 5 -152 -21 -46 -25 -64 -13 -56 17 10 9 -10 -13 -33 -12 -13 -18 -26 -15 -30 4 -3 24 11 44 33 l38 39 48 -32 c27 -18 68 -38 90 -45 68 -19 83 -56 51 -121 l-15 -32 21 25 c15 19 20 37 18 75 l-2 50 42 -3 c62 -5 133 22 159 60 16 23 19 36 13 49 -8 14 -6 16 13 12 12 -3 27 -9 32 -14 6 -4 44 -18 85 -30 60 -17 105 -22 225 -24 83 -1 164 1 180 5 17 3 -53 9 -155 12 -127 4 -204 11 -245 23 -213 59 -336 219 -335 433 1 133 51 244 160 352 176 177 414 234 680 164z m-1075 -950 c-37 -28 -47 -11 -18 33 l17 26 10 -23 c8 -18 6 -25 -9 -36z m1465 -536 c13 -22 20 -51 20 -86 0 -48 -4 -58 -34 -88 -36 -36 -86 -45 -127 -24 -23 13 -25 56 -4 84 8 11 15 26 15 33 0 22 -29 14 -46 -13 -15 -22 -15 -27 -3 -35 12 -7 11 -9 -2 -9 -32 0 -38 49 -11 98 25 47 68 72 125 72 43 0 49 -3 67 -32z m-222 -89 c-2 -27 -8 -35 -28 -37 -13 -2 -35 -13 -49 -23 -24 -20 -39 -19 -26 0 3 6 10 9 15 6 10 -6 70 73 70 94 0 11 3 12 11 4 6 -6 9 -26 7 -44z"/>
    <path d="M1657 2059 c-30 -18 -47 -65 -47 -132 0 -78 14 -121 45 -141 29 -19 46 -20 79 -5 41 19 59 70 54 159 -3 66 -7 82 -27 104 -26 28 -71 34 -104 15z m87 -41 c19 -27 22 -144 4 -183 -24 -53 -92 -40 -104 20 -9 51 0 150 15 169 20 24 67 20 85 -6z"/>
    <path d="M2106 2048 c-67 -89 -60 -259 14 -323 l23 -20 -14 23 c-8 12 -17 22 -21 22 -13 0 -28 74 -28 136 0 64 23 147 48 177 8 9 12 17 9 17 -3 0 -17 -15 -31 -32z"/>
    <path d="M1825 1425 c-25 -9 -32 -14 -19 -14 12 -1 37 6 55 14 42 18 18 18 -36 0z"/>
    <path d="M1240 1381 c8 -5 53 -16 99 -25 87 -17 372 -21 421 -7 14 5 -40 8 -120 7 -157 -1 -285 8 -340 24 -45 13 -82 13 -60 1z"/>
    <path d="M975 1279 c5 -68 15 -75 15 -11 0 28 -4 54 -10 57 -6 4 -8 -13 -5 -46z"/>
    <path d="M1218 1320 c-19 -11 -68 -92 -68 -112 1 -7 7 1 14 18 8 17 28 47 46 67 34 39 35 42 8 27z"/>
    <path d="M1225 1217 c-42 -75 -64 -89 -76 -47 -6 22 -7 23 -8 4 -1 -30 23 -48 46 -35 20 10 86 127 81 141 -2 5 -21 -24 -43 -63z"/>
    <path d="M1401 1072 c-75 -97 -101 -158 -78 -181 7 -7 64 -11 144 -11 l133 0 6 25 c12 48 1 55 -83 55 -51 0 -73 -3 -64 -9 8 -5 33 -8 56 -6 48 4 70 -6 62 -29 -9 -22 -218 -24 -236 -2 -15 18 11 73 63 131 20 22 36 43 36 47 0 4 6 13 14 20 12 13 32 59 24 58 -2 -1 -36 -44 -77 -98z" style=""/>
    <path d="M1344 1256 c-3 -8 -4 -27 -2 -43 3 -26 6 -28 57 -31 30 -2 59 2 64 7 8 8 -3 11 -35 11 -29 0 -50 6 -58 15 -23 28 3 36 111 33 103 -3 104 -3 107 -28 1 -17 -14 -47 -51 -95 -29 -38 -63 -88 -77 -109 -42 -70 0 -26 77 77 64 87 74 106 71 137 l-3 35 -128 3 c-104 2 -128 0 -133 -12z" style=""/>
    <path d="M1983 1020 c0 -36 2 -50 4 -32 2 17 2 47 0 65 -2 17 -4 3 -4 -33z"/>
    <path d="M685 2388 c-10 -18 -86 -134 -168 -257 -82 -123 -151 -230 -154 -237 -4 -11 13 -14 83 -14 49 0 96 5 104 10 17 11 15 12 -68 15 -35 2 -66 5 -69 8 -5 6 207 330 237 361 20 20 20 21 -13 -139 -15 -71 -13 -112 5 -82 4 9 23 87 42 174 19 87 37 166 41 176 13 31 -20 19 -40 -15z"/>
    <path d="M662 2033 c-25 -10 1 -23 48 -23 27 0 52 -4 55 -10 5 -8 -8 -38 -35 -80 -69 -106 -118 -213 -90 -195 14 8 180 288 180 303 0 8 -22 12 -72 11 -40 0 -79 -3 -86 -6z"/>
    <path d="M557 1873 c-12 -20 -44 -163 -36 -163 22 0 66 147 50 163 -5 5 -11 5 -14 0z"/>
    <path d="M446 1362 c-7 -13 -36 -116 -36 -130 0 -27 21 -6 55 53 l33 60 -24 12 c-13 6 -26 8 -28 5z"/>
    <path d="M1315 2264 c-11 -9 -42 -27 -70 -40 -27 -13 -42 -24 -33 -24 27 0 103 40 116 61 15 23 13 23 -13 3z"/>
    <path d="M1346 1582 c-9 -15 25 -54 60 -68 68 -28 170 -8 195 38 17 32 -3 40 -46 18 -50 -26 -111 -26 -150 0 -32 21 -51 25 -59 12z"/>
  </g>
  <path stroke="rgb(255,0,0)" stroke-width="0" opacity="0.8117647058823529" d="M 177.459 57.804 C 177.585 57.993 177.756 58.219 177.94 58.458 C 178.209 58.569 178.382 58.675 178.426 58.771 C 178.435 58.79 178.439 58.809 178.441 58.83 C 179.818 59.289 180.811 59.746 181.005 60.107 C 181.424 60.884 179.66 62.444 178.104 62.686 C 176.48 62.939 172.283 61.92 169.308 60.807 C 166.024 60.943 161.98 60.739 160.052 60.66 C 159.86 60.652 159.671 60.646 159.486 60.641 C 156.791 61.016 154.623 61.142 154.112 60.844 C 153.426 60.443 154.131 59.15 155.079 58.265 C 155.217 58.136 155.388 57.999 155.586 57.856 C 155.652 57.684 155.743 57.538 155.862 57.436 C 156.032 57.289 156.3 57.217 156.633 57.19 C 159.377 55.604 164.291 53.666 166.683 53.107 C 167.491 52.918 168.263 52.766 168.963 52.698 C 169.992 51.379 173.094 49.975 176.479 48.573 C 176.483 48.564 176.488 48.556 176.492 48.548 C 177.211 47.194 181.749 44.223 185.118 42.699 C 186.238 40.95 187.515 39.154 188.659 37.74 C 187.899 36.212 186.979 34.717 186.237 33.891 C 183.475 34.032 179.948 33.891 178.029 33.556 C 176.578 33.647 174.998 33.621 173.874 33.533 C 172.087 34.028 169.695 34.495 167.452 34.819 C 166.721 35.564 163.639 36.459 160.607 37.11 C 159.084 38.127 155.88 39.547 153.013 40.565 C 153.059 40.711 153.061 40.842 153.006 40.95 C 152.745 41.464 150.382 42.122 147.976 42.563 C 147.556 42.779 146.929 43.009 146.149 43.242 C 146.047 43.452 145.886 43.648 145.638 43.825 C 145.268 44.089 144.498 44.371 143.516 44.64 C 142.389 45.237 140.08 45.867 138.605 46.049 C 138.416 46.189 138.2 46.31 137.948 46.404 C 136.78 46.838 133.891 47.021 132.202 46.731 C 129.638 47.152 126.761 47.218 125.422 46.476 C 125.087 46.291 124.78 45.98 124.506 45.6 C 123.624 45.493 122.833 45.356 122.199 45.187 C 120.116 44.631 117.88 43.451 116.541 42.309 C 115.572 41.905 114.716 41.36 114.14 40.628 C 113.738 40.116 113.353 39.247 113.084 38.38 C 111.867 35.496 112.417 28.744 112.85 27.181 C 112.893 27.026 112.941 26.9 112.995 26.795 C 113.212 25.94 113.596 25.191 114.14 24.648 C 114.498 24.29 114.998 23.949 115.531 23.707 C 116.371 22.019 117.513 20.231 118.514 19.306 C 120.013 17.922 122.533 16.868 124.246 16.726 C 124.745 16.41 125.255 16.108 125.762 15.83 C 125.952 15.606 126.133 15.41 126.297 15.254 C 127.477 14.132 129.177 13.238 130.488 13.32 C 130.559 13.324 130.634 13.333 130.712 13.344 C 130.747 13.338 130.782 13.333 130.816 13.329 C 131.519 13.068 132.207 12.894 132.698 12.879 C 133.617 12.852 134.74 13.309 134.955 13.847 C 135.136 14.3 134.884 15.193 134.326 15.801 C 134.325 15.835 134.319 15.867 134.31 15.898 C 134.202 16.249 133.362 16.704 132.327 17.092 C 132.27 17.129 132.211 17.166 132.152 17.203 C 131.933 17.472 131.682 17.746 131.409 18.017 C 131.089 18.334 130.637 18.651 130.096 18.974 C 130.04 19.096 129.971 19.208 129.889 19.306 C 129.634 19.609 129.07 19.934 128.377 20.232 C 127.739 20.8 126.616 21.478 125.411 22.093 C 125.289 22.321 125.154 22.567 125.01 22.81 C 124.574 24.088 122.631 26.673 120.794 28.619 C 120.748 29.802 120.236 31.634 120.452 33.136 C 120.565 33.321 120.695 33.504 120.836 33.684 C 121.373 33.97 121.936 34.287 122.337 34.687 C 122.769 35.119 123.041 35.751 123.335 36.327 C 125.886 36.562 130.689 38.367 134.724 37.839 C 138.112 37.396 143.342 35.118 148.179 33.044 C 152.366 30.462 162.268 26.475 166.683 25.774 C 168.095 25.55 169.552 25.532 170.897 25.648 C 171.802 25.382 172.698 25.167 173.499 25.037 C 177.131 24.446 182.141 24.719 185.748 25.682 C 189.047 26.561 193.081 28.48 194.452 30.195 C 195.178 31.103 195.5 32.606 195.36 33.475 C 195.686 34.026 195.914 34.909 196.033 35.766 C 196.686 36.602 196.702 37.592 196.662 38.325 C 196.654 38.478 196.638 38.643 196.611 38.807 C 196.717 39.222 196.771 39.594 196.755 39.891 C 196.714 40.656 196.215 41.5 195.676 41.906 C 195.597 42.736 195.438 43.358 195.189 43.529 C 195.131 43.569 195.058 43.588 194.973 43.59 C 194.946 43.778 194.896 43.918 194.82 43.989 C 194.689 44.113 194.42 44.113 194.098 44.035 C 193.457 45.756 191.946 48.122 190.814 49.147 C 189.924 49.953 188.476 50.615 187.288 50.928 C 186.779 51.784 186.188 52.574 185.656 53.015 C 184.658 53.844 182.822 54.436 181.717 54.405 C 181.498 54.841 181.211 55.255 180.683 55.594 C 179.93 56.078 178.606 56.683 177.144 57.206 C 177.233 57.408 177.33 57.61 177.459 57.804 Z M 185.395 91.877 C 185.698 92.262 185.927 92.86 186.084 93.523 C 186.226 93.68 186.356 93.848 186.47 94.026 C 186.653 94.313 186.846 94.717 187.042 95.213 C 187.234 95.379 187.402 95.556 187.544 95.745 C 188.034 96.399 188.419 97.526 188.709 98.881 C 189.247 99.178 189.822 99.672 190.123 100.258 C 191.074 102.108 190.992 108.707 190.768 110.573 C 190.761 110.628 190.755 110.682 190.748 110.734 C 190.815 112.766 190.58 115.301 190.123 117.235 C 189.957 117.938 189.707 118.769 189.4 119.658 C 189.435 120.157 189.401 120.59 189.264 120.889 C 189.157 121.124 188.956 121.344 188.7 121.542 C 187.393 124.832 185.628 128.215 184.643 128.518 C 184.516 128.557 184.377 128.544 184.232 128.491 C 183.679 129.411 182.508 130.603 181.635 131.097 C 180.973 131.471 179.979 131.757 179.063 131.874 C 178.989 131.903 178.915 131.93 178.841 131.956 C 178.304 132.145 177.602 132.297 176.814 132.411 C 176.507 132.495 176.19 132.579 175.865 132.662 C 175.491 132.813 175.119 132.939 174.758 133.031 C 174.219 133.168 173.582 133.274 172.904 133.348 C 170.094 133.941 167.257 134.381 165.714 134.402 C 158.579 135.262 146.258 135.685 140.137 135.151 C 136.486 135.406 130.81 135.025 128.339 134.535 C 127.463 134.361 126.591 134.118 125.833 133.834 C 124.009 133.655 121.863 133.158 121.354 132.708 C 121.317 132.675 121.283 132.64 121.252 132.602 C 121.251 132.602 121.249 132.601 121.247 132.601 C 118.551 131.9 114.001 130.011 111.899 127.766 C 111.793 127.653 111.689 127.533 111.586 127.407 C 110.989 127.159 110.44 126.771 110.179 126.369 C 110.085 126.224 110.003 126.03 109.937 125.808 C 109.409 125.355 108.923 124.495 108.572 123.627 C 108.367 123.445 108.182 123.248 108.03 123.038 C 107.478 122.274 106.997 120.768 106.605 119.027 C 105.96 116.796 105.485 114.046 105.451 112.078 C 105.445 111.72 105.454 111.332 105.475 110.926 C 105.459 110.624 105.451 110.361 105.451 110.144 C 105.451 109.719 105.475 109.382 105.525 109.1 C 105.492 108.848 105.467 108.621 105.451 108.424 C 105.364 107.351 105.413 106.551 105.647 106.042 C 105.724 104.445 105.955 102.855 106.311 101.762 C 106.687 100.609 107.42 99.278 108.22 98.215 C 109.244 95.408 111.35 91.729 113.081 90.265 C 114.252 89.274 115.754 88.885 117.241 88.669 C 117.581 88.474 117.987 88.323 118.58 88.183 C 118.859 88.082 119.207 88.006 119.743 87.901 C 120.192 87.814 120.835 87.725 121.609 87.641 C 126.901 86.282 136.928 85.763 143.597 85.322 C 151.061 84.829 160.637 84.57 165.705 85.256 C 166.605 85.19 167.828 85.274 168.886 85.46 C 171.675 85.437 176.31 86.14 177.148 86.945 C 178.657 87.524 180.222 88.322 181.097 89.083 C 181.367 89.318 181.644 89.618 181.917 89.959 C 183.273 90.38 184.786 91.101 185.395 91.877 Z M 120.615 123.45 C 121.99 123.491 123.994 123.772 125.747 124.195 C 126.522 123.81 127.401 123.535 128.124 123.36 C 128.592 123.247 129.157 123.142 129.703 123.089 C 130.302 121.736 131.211 120.177 131.924 119.298 C 132.021 118.373 132.28 117.132 132.677 116.317 C 132.836 115.172 133.097 113.841 133.285 112.503 C 133.318 112.174 133.358 111.84 133.408 111.512 C 133.484 110.789 133.526 110.076 133.506 109.404 C 133.462 109.371 133.423 109.331 133.389 109.284 C 133.121 108.914 133.114 108.184 133.195 107.291 C 132.3 103.576 129.892 98.738 128.554 96.927 C 127.783 95.883 126.77 96.088 126.344 95.399 C 126.237 95.426 126.148 95.435 126.082 95.423 C 125.92 95.392 125.791 95.244 125.692 95.042 C 123.493 95.412 120.086 96.097 118.561 97.679 C 116.441 99.875 115.742 104.628 115.337 107.994 C 115.052 110.366 116.007 113.751 116.171 115.802 C 116.183 115.815 116.194 115.827 116.205 115.84 C 116.591 116.285 116.874 117.099 117.075 118.046 C 117.745 118.958 118.227 120.548 118.506 121.949 C 119.24 122.425 119.974 122.946 120.615 123.45 Z M 165.087 123.145 C 166.319 124.517 168.698 124.916 169.879 125.454 C 171.292 125.108 172.922 124.477 174.017 124.008 C 174.968 122.317 176.233 120.333 177.419 118.697 C 177.387 116.48 178.04 112.817 178.789 110.616 C 178.408 109.424 178.253 107.545 178.304 106.705 C 178.332 106.245 178.402 105.804 178.556 105.494 C 177.673 101.849 176.503 98.381 175.848 97.336 C 175.403 96.627 175.153 97.058 174.558 96.692 C 174.076 96.395 173.352 95.704 172.576 95.036 C 170.82 94.908 168.917 94.676 167.881 94.778 C 167.34 94.831 166.798 95.021 166.329 95.197 C 165.013 96.423 163.265 98.44 162.058 100.684 C 162.121 100.755 162.165 100.828 162.186 100.903 C 162.249 101.13 162.116 101.549 161.885 102.022 C 162.689 103.963 162.456 110.07 161.713 112.942 C 162.067 113.901 162.131 116.182 161.893 117.497 C 161.909 117.684 161.921 117.866 161.931 118.039 C 162.005 118.194 162.072 118.393 162.131 118.624 C 163.065 120.457 164.121 122.07 165.087 123.145 Z M 137.257 235.182 C 138.328 234.619 142.201 234.911 146.96 235.468 C 148.777 235.473 150.573 235.621 151.646 235.929 C 153.263 235.713 155.671 235.634 158.308 235.623 C 164.221 235.269 171.683 235.31 174.543 235.612 C 174.894 235.201 175.192 235.025 175.832 234.967 C 176.88 234.871 180.224 235.314 180.667 235.934 C 180.959 236.342 180.629 237.161 180.023 237.546 C 179.738 237.727 179.162 237.905 178.465 238.054 C 177.588 238.522 176.175 239.01 174.663 239.333 C 174.659 239.346 174.655 239.359 174.65 239.372 C 174.62 239.447 174.551 239.528 174.448 239.615 C 174.485 239.78 174.484 239.941 174.435 240.089 C 173.957 241.528 165.927 245.573 164.233 245.576 C 159.981 246.926 154.233 248.267 151.301 248.577 C 149.976 249.232 148.262 249.936 146.459 250.595 C 144.279 251.983 141.44 253.574 138.775 254.945 C 137.023 257.655 133.69 261.392 133.389 262.869 C 133.351 263.054 133.36 263.222 133.397 263.374 C 133.475 263.422 133.544 263.469 133.604 263.513 C 133.879 263.717 133.883 264.003 133.934 264.294 C 133.964 264.339 133.992 264.382 134.014 264.425 C 137.79 263.829 147.857 264.119 155.909 264.829 C 157.601 264.723 159.436 264.648 161.228 264.656 C 162.259 264.476 163.306 264.363 164.227 264.337 C 165.095 264.312 166.194 264.375 167.319 264.5 C 167.44 264.504 167.564 264.509 167.689 264.516 C 167.769 264.44 167.867 264.379 167.988 264.337 C 169.348 263.867 176.493 264.851 177.659 266.594 C 178.67 268.105 177.352 272.164 176.047 273.363 C 175.377 273.979 173.856 274.269 172.58 274.313 C 171.949 274.611 171.22 274.873 170.46 275.082 C 168.831 275.531 165.656 275.987 162.622 276.183 C 161.782 276.393 160.646 276.553 159.473 276.644 C 156.95 277.26 152.365 277.255 148.54 276.802 C 143.641 276.221 134.06 273.935 130.242 272.149 C 128.466 271.519 126.256 269.75 125.223 268.098 C 124.924 267.62 124.672 267.039 124.47 266.415 C 124.158 266 123.893 265.541 123.718 265.089 C 123.248 263.877 123.237 261.457 123.414 259.708 C 123.41 258.483 123.512 257.31 123.718 256.493 C 124.171 254.696 125.711 252.368 126.619 252.303 C 126.654 252.3 126.69 252.301 126.727 252.305 C 127.393 251.326 127.995 250.524 128.339 250.154 C 128.756 249.704 128.932 249.644 129.291 249.574 C 129.398 249.482 129.511 249.388 129.628 249.294 C 132.002 247.383 139.903 242.639 142.441 242.214 C 143.997 241.086 145.6 240.142 146.791 239.947 C 144.311 239.787 141.861 239.38 141.152 238.856 C 139.291 238.595 137.861 238.245 137.257 237.761 C 136.407 237.079 136.218 235.727 137.257 235.182 Z" style="fill-opacity: 1; fill-rule: nonzero; stroke: rgb(0, 0, 0); stroke-dasharray: none; stroke-dashoffset: 0px; stroke-linecap: butt; stroke-linejoin: miter; stroke-miterlimit: 4; stroke-opacity: 1; stroke-width: 1px; paint-order: normal; vector-effect: none; opacity: 1; mix-blend-mode: normal; isolation: auto; fill: rgb(26, 123, 216);"/>
  <path fill="rgb(255,0,0)" stroke="rgb(255,0,0)" stroke-width="0" opacity="0.7294117647058823" d="M 164.98 101.977 C 164.995 101.911 165.012 101.845 165.03 101.779 C 164.99 101.546 164.971 101.328 164.988 101.126 C 165.048 100.424 165.257 99.891 165.633 99.514 C 166.009 99.138 166.41 98.902 167.245 98.87 C 168.75 98.812 173.148 98.405 174.659 100.482 C 176.796 103.419 177.207 115.233 175.304 118.533 C 174.775 119.45 173.821 120.217 172.744 120.766 C 172.702 120.799 172.66 120.831 172.617 120.862 C 172.047 121.278 171.249 121.491 170.455 121.563 C 169.453 121.759 168.522 121.733 167.889 121.435 C 167.754 121.371 167.621 121.286 167.493 121.181 C 166.77 120.915 166.111 120.504 165.848 119.894 C 165.677 119.499 165.643 118.851 165.702 118.131 C 164.975 116.133 164.506 113.7 164.344 112.086 C 164.189 110.553 164.68 108.999 165.1 107.576 C 164.731 105.785 164.701 103.167 164.98 101.977 Z M 121.685 99.371 C 123.282 98.294 127.06 99.31 128.455 100.983 C 130.131 102.994 130.033 108.413 129.744 111.943 C 129.677 112.758 129.58 113.69 129.446 114.651 C 129.395 116.196 129.271 117.533 129.099 118.39 C 128.722 120.27 128 121.532 126.843 121.936 C 126.362 122.209 125.69 122.238 124.956 122.097 C 123.654 121.977 122.177 121.443 121.363 120.324 C 121.363 120.324 121.362 120.323 121.362 120.323 C 121.118 120.115 120.9 119.899 120.718 119.68 C 119.164 117.817 118.701 113.861 118.784 110.654 C 118.815 109.468 118.931 107.952 119.147 106.412 C 119.174 105.186 119.267 104.18 119.429 103.562 C 119.575 103.003 119.777 102.58 120.032 102.255 C 120.459 100.903 121.005 99.83 121.685 99.371 Z" style="fill: rgb(242, 242, 242); fill-opacity: 1; fill-rule: nonzero; stroke: none; stroke-dasharray: none; stroke-dashoffset: 0px; stroke-linecap: butt; stroke-linejoin: miter; stroke-miterlimit: 4; stroke-opacity: 1; stroke-width: 1px; paint-order: normal; vector-effect: none; opacity: 1; mix-blend-mode: normal; isolation: auto;"/>
  <path fill="rgb(255,0,0)" stroke="rgb(255,0,0)" stroke-width="0" opacity="0.9333333333333333" d="M 72.365 110.618 C 72.223 110.748 72.061 110.85 71.879 110.931 C 71.832 111.307 71.709 111.755 71.556 112.153 C 71.727 112.28 71.843 112.435 71.852 112.648 C 71.905 113.953 68.763 118.379 67.661 118.773 C 67.566 118.807 67.466 118.819 67.363 118.814 C 66.278 121.843 64.866 124.873 63.787 126.006 C 63.753 126.278 63.719 126.532 63.686 126.76 C 63.626 127.175 63.551 127.645 63.462 128.116 C 63.735 128.574 63.889 129.069 63.686 129.339 C 63.591 129.465 63.382 129.598 63.085 129.732 C 62.887 130.391 62.655 130.877 62.396 130.95 C 62.143 131.022 61.719 130.744 61.33 130.314 C 60.995 130.402 60.639 130.487 60.27 130.568 C 60.111 130.807 59.951 130.991 59.793 131.105 C 59.143 131.574 57.917 131.504 56.934 131.119 C 55.232 131.307 53.773 131.303 53.37 130.95 C 52.616 130.289 54.094 128.55 54.66 126.76 C 55.346 124.588 56.463 119.103 57.417 117.32 C 57.231 116.496 57.141 115.193 57.14 113.908 C 56.782 113.578 56.408 113.172 56.164 112.863 C 56.022 112.683 55.865 112.467 55.71 112.236 C 52.927 112.155 49.899 111.878 49.502 111.466 C 49.495 111.459 49.489 111.452 49.484 111.445 C 48.142 111.682 46.783 111.859 46.171 111.824 C 45.442 111.783 44.93 111.586 44.649 111.289 C 44.053 111.264 43.5 111.178 43.151 111.029 C 42.356 111.297 41.51 111.422 41.336 111.179 C 41.071 110.809 42.186 109.052 42.821 108.137 C 42.655 107.665 44.248 104.346 45.496 102.432 C 47.366 99.17 51.582 93.535 53.878 90.537 C 53.829 90.431 53.801 90.326 53.8 90.226 C 53.793 89.397 55.222 88.087 56.517 86.848 C 56.438 86.742 56.387 86.647 56.379 86.573 C 56.34 86.227 56.983 85.584 57.296 85.597 C 57.612 84.764 58.155 83.713 58.706 82.836 C 58.94 82.221 59.381 81.539 59.895 80.911 C 59.837 80.715 59.807 80.517 59.818 80.341 C 59.86 79.675 60.621 78.26 61.322 77.426 C 61.313 77.322 61.312 77.218 61.322 77.117 C 61.455 75.768 63.894 72.58 65.38 71.42 C 65.28 71.317 65.212 71.208 65.19 71.1 C 65.052 70.408 66.525 67.967 67.273 67.6 C 67.297 67.569 67.319 67.553 67.339 67.554 C 67.347 67.555 67.356 67.558 67.365 67.565 C 67.394 67.557 67.421 67.553 67.447 67.554 C 67.462 67.554 67.478 67.556 67.493 67.56 C 67.662 67.347 67.83 67.192 67.984 67.124 C 68.557 66.872 69.721 67.361 69.918 68.091 C 70.098 68.758 69.475 70.787 68.773 72.451 C 68.78 72.919 68.738 73.289 68.629 73.356 C 68.575 73.42 68.479 73.448 68.356 73.445 C 68.107 74.843 67.737 76.481 67.339 76.58 C 67.287 76.593 67.228 76.585 67.163 76.561 C 67.286 76.802 67.357 76.971 67.339 77.01 C 67.318 77.055 67.194 77.009 67.027 76.909 C 67.1 77.613 67.09 78.321 66.909 78.514 C 66.867 78.559 66.805 78.593 66.728 78.619 C 66.742 78.79 66.733 78.906 66.694 78.944 C 66.654 78.983 66.571 78.977 66.459 78.937 C 65.736 84.371 63.511 94.618 62.181 95.993 C 62.04 96.139 61.886 96.236 61.727 96.291 C 62.004 96.464 62.253 96.695 62.396 96.96 C 62.49 97.133 62.569 97.384 62.632 97.686 C 64.128 98.524 66.5 99.94 66.48 100.542 C 66.474 100.71 66.285 100.873 66 101.016 C 66.158 101.057 66.329 101.094 66.511 101.128 C 66.531 101.13 66.55 101.132 66.569 101.135 C 66.644 101.111 66.722 101.092 66.802 101.079 C 67.131 101.026 67.739 101.042 68.488 101.118 C 69.757 101.041 71.955 101.197 73.636 101.416 C 75.463 101.401 76.882 101.394 77.01 101.58 C 77.116 101.734 76.54 102.002 75.717 102.258 C 75.686 102.28 75.653 102.302 75.617 102.325 C 75.692 102.481 75.767 102.657 75.837 102.838 C 76.27 102.934 76.54 103.02 76.58 103.085 C 76.624 103.156 76.395 103.236 76.007 103.323 C 76.157 103.797 76.237 104.214 76.15 104.303 C 76.092 104.362 75.917 104.343 75.694 104.275 C 75.679 104.619 75.602 105 75.485 105.386 C 75.742 105.989 75.93 106.433 75.935 106.452 C 75.942 106.476 75.731 106.012 75.472 105.43 C 75.107 106.607 74.381 107.822 73.894 108.171 C 73.769 108.26 73.604 108.317 73.42 108.347 C 73.377 109.218 72.873 110.154 72.365 110.618 Z M 60.795 129.575 C 60.78 129.608 60.766 129.641 60.751 129.674 C 60.762 129.67 60.774 129.665 60.785 129.661 C 60.801 129.655 60.817 129.648 60.833 129.64 C 60.82 129.619 60.807 129.597 60.795 129.575 Z M 60.273 95.709 C 60.243 95.8 60.212 95.891 60.18 95.982 C 60.205 96.037 60.231 96.101 60.257 96.175 C 60.318 96.09 60.386 96.028 60.462 95.993 C 60.476 95.987 60.49 95.981 60.506 95.976 C 60.419 95.897 60.341 95.807 60.273 95.709 Z M 44.774 164.046 C 45.627 163.378 50.227 164.006 50.577 164.69 C 50.762 165.054 50.015 165.98 49.292 166.62 C 49.7 167.447 50.032 168.397 49.932 168.558 C 49.869 168.659 49.636 168.531 49.351 168.362 C 49.348 168.534 49.328 168.708 49.287 168.881 C 48.977 170.192 47.028 173.077 45.882 173.655 C 45.571 174.251 45.246 174.698 44.989 174.791 C 44.414 174.999 43.218 174.002 43.055 173.179 C 42.964 172.717 43.154 171.84 43.463 170.958 C 43.646 169.657 44.105 168.028 44.572 166.942 C 44.272 166.178 44.213 164.485 44.774 164.046 Z" style="fill: rgb(254, 237, 11); fill-opacity: 1; fill-rule: nonzero; stroke: none; stroke-dasharray: none; stroke-dashoffset: 0px; stroke-linecap: butt; stroke-linejoin: miter; stroke-miterlimit: 4; stroke-opacity: 1; stroke-width: 1px; paint-order: normal; vector-effect: none; opacity: 1; mix-blend-mode: normal; isolation: auto;"/>
  <path fill="rgb(255,0,0)" stroke="rgb(255,0,0)" stroke-width="0" opacity="0.8235294117647058" d="M 146.771 206.971 C 149.888 206.832 153.986 206.784 156.427 207.153 C 157.412 206.857 159.332 206.935 159.822 207.387 C 160.067 207.613 160.193 208.12 160.2 208.633 C 160.219 208.647 160.236 208.662 160.252 208.677 C 160.598 209.002 160.719 209.984 160.57 210.656 C 160.813 211.352 160.498 212.347 159.929 212.76 C 159.373 213.164 158.016 213.244 156.51 213.184 C 153.906 213.901 144.621 213.58 138.925 212.921 C 138.26 213.214 136.881 213.307 135.846 213.164 C 135.846 213.274 135.818 213.357 135.753 213.405 C 135.284 213.747 132.316 212.788 131.885 211.793 C 131.599 211.135 131.965 209.637 132.476 208.472 C 132.469 208.182 132.484 207.92 132.529 207.71 C 132.652 207.135 133.01 206.424 133.445 205.849 C 133.789 204.478 135.653 201.721 137.302 199.903 C 137.786 198.646 139.724 195.848 140.803 194.708 C 141.001 194.499 141.212 194.284 141.433 194.072 C 142.45 192.396 144.355 190.165 146.067 188.549 C 146.047 188.364 146.046 188.162 146.068 187.939 C 146.182 186.745 147.39 183.901 148.558 182.082 C 147.507 182.116 146.363 182.121 145.201 182.097 C 142.362 182.877 137.587 183.381 136.075 182.673 C 134.794 182.074 134.517 180.054 134.463 179.128 C 134.448 178.864 134.463 178.577 134.519 178.318 C 134.498 178.301 134.48 178.285 134.463 178.268 C 133.991 177.796 134.326 176.97 135.108 176.656 C 136.026 176.288 139.449 176.368 142.853 176.691 C 144.927 176.585 147.302 176.599 149.319 176.731 C 150.634 176.428 152.97 176.361 154.782 176.53 C 155.017 176.503 155.326 176.535 155.651 176.608 C 156.094 176.444 156.795 176.373 157.464 176.393 C 158.101 176.29 158.859 176.425 159.177 176.799 C 159.335 176.985 159.457 177.349 159.543 177.809 C 159.777 179.064 159.74 181.033 159.432 182.062 C 159.366 183.407 157.947 186.089 157.136 186.47 C 157.045 186.513 156.942 186.54 156.831 186.552 C 156.571 186.887 156.274 187.172 156.024 187.282 C 152.629 193.815 146.63 203.148 143.404 206.8 C 144.428 206.818 145.579 206.878 146.771 206.971 Z" style="fill: rgb(26, 123, 216); fill-opacity: 1; fill-rule: nonzero; stroke: rgb(0, 0, 0); stroke-dasharray: none; stroke-dashoffset: 0px; stroke-linecap: butt; stroke-linejoin: miter; stroke-miterlimit: 4; stroke-opacity: 1; stroke-width: 1px; paint-order: normal; vector-effect: none; opacity: 1; mix-blend-mode: normal; isolation: auto;"/>
</svg>